<?xml version="1.0" encoding="UTF-8" standalone="no"?>
<svg width="616px" height="364px" viewBox="0 0 616 364" version="1.1" xmlns="http://www.w3.org/2000/svg" xmlns:xlink="http://www.w3.org/1999/xlink">
    <!-- Generator: Sketch 50.2 (55047) - http://www.bohemiancoding.com/sketch -->
    <title>Group 5</title>
    <desc>Created with Sketch.</desc>
    <defs>
        <filter x="-5.4%" y="-9.0%" width="110.8%" height="119.1%" filterUnits="objectBoundingBox" id="filter-1">
            <feOffset dx="0" dy="2" in="SourceAlpha" result="shadowOffsetOuter1"></feOffset>
            <feGaussianBlur stdDeviation="10" in="shadowOffsetOuter1" result="shadowBlurOuter1"></feGaussianBlur>
            <feColorMatrix values="0 0 0 0 0.348054847   0 0 0 0 0.348054847   0 0 0 0 0.348054847  0 0 0 1 0" type="matrix" in="shadowBlurOuter1" result="shadowMatrixOuter1"></feColorMatrix>
            <feMerge>
                <feMergeNode in="shadowMatrixOuter1"></feMergeNode>
                <feMergeNode in="SourceGraphic"></feMergeNode>
            </feMerge>
        </filter>
    </defs>
    <g id="Page-1" stroke="none" stroke-width="1" fill="none" fill-rule="evenodd">
        <g id="Artboard-Copy-10" transform="translate(-503.000000, -245.000000)">
            <g id="Group-5" transform="translate(523.000000, 263.000000)">
                <g id="Group-4">
                    <g id="Group-2" filter="url(#filter-1)">
                        <path d="M8,0 L568,0 C572.418278,-6.35991312e-14 576,3.581722 576,8 L576,318 C576,321.313708 573.313708,324 570,324 L6,324 C2.6862915,324 4.05812251e-16,321.313708 0,318 L0,8 C-5.41083001e-16,3.581722 3.581722,8.11624501e-16 8,0 Z" id="Rectangle" fill="#FFFFFF"></path>
                        <path d="M8,18 L103.5,18 L103.5,139 C104.166667,145 102.666667,149.666667 99,153 C95.3333333,156.333333 91.5,158.5 87.5,159.5 C93.335647,160.901652 97.5640309,163.568319 100.185152,167.5 C102.806273,171.431681 103.911222,176.765015 103.5,183.5 L103.5,324 L6,324 C2.6862915,324 -1.35289947e-12,321.313708 -1.35624845e-12,318 L-1.32249767e-12,134 L-1.3500312e-12,26 C-1.35253439e-12,21.581722 3.581722,18 8,18 Z" id="Rectangle-4" fill="#DAA91E"></path>
                        <path d="M6,0 L570,0 C573.313708,-6.08718376e-16 576,2.6862915 576,6 L576,50.4 L0,50.4 L8.8817842e-16,6 C4.82366169e-16,2.6862915 2.6862915,6.08718376e-16 6,0 Z" id="Rectangle-2" fill="#ECECEC"></path>
                        <g id="Group" transform="translate(246.600000, 30.600000)">
                            <path d="M4,0 L52.7,0 C54.909139,-4.05812251e-16 56.7,1.790861 56.7,4 L56.7,19.8 L0,19.8 L0,4 C-2.705415e-16,1.790861 1.790861,4.05812251e-16 4,0 Z" id="Rectangle-5" fill="#BFC2CF"></path>
                            <path d="M69,0 L117.7,0 C119.909139,-4.05812251e-16 121.7,1.790861 121.7,4 L121.7,19.8 L65,19.8 L65,4 C65,1.790861 66.790861,4.05812251e-16 69,0 Z" id="Rectangle-5-Copy-4" fill="#BFC2CF"></path>
                            <path d="M4,0 L52.7,0 C54.909139,-4.05812251e-16 56.7,1.790861 56.7,4 L56.7,19.8 L35.55,19.8 L28.35,24.75 L22.5,19.8 L0,19.8 L0,4 C-2.705415e-16,1.790861 1.790861,4.05812251e-16 4,0 Z" id="Rectangle-5-Copy" fill="#00D295"></path>
                            <path d="M133.6,0 L182.3,0 C184.509139,-4.05812251e-16 186.3,1.790861 186.3,4 L186.3,19.8 L129.6,19.8 L129.6,4 C129.6,1.790861 131.390861,4.05812251e-16 133.6,0 Z" id="Rectangle-5-Copy-2" fill="#BFC2CF"></path>
                            <g id="Group-4" transform="translate(150.000000, 4.000000)" fill="#FFFFFF" fill-rule="nonzero">
                                <g id="Group-7">
                                    <g id="group-(2)">
                                        <path d="M0.229808275,10.9548164 C0.229808275,7.6747345 3.15622149,7.6754345 3.80561898,6.81778879 L3.87993133,6.42669618 C2.96756057,5.97134314 2.3234965,4.87422583 2.3234965,3.59069727 C2.3234965,1.899906 3.4408129,0.52901686 4.81875587,0.52901686 C5.90378729,0.52901686 6.82447819,1.38050254 7.1680928,2.56729045 C5.78780313,2.99905333 4.76677278,4.47228315 4.76677278,6.22355482 C4.76677278,7.42924286 5.24962527,8.53777025 6.04231404,9.24204495 C5.91502303,9.30630538 5.77343845,9.37182581 5.65169419,9.42796619 C5.01246576,9.72315815 4.12640655,10.1335009 3.48717812,10.9548164 L0.229808275,10.9548164 Z M8.03232054,13.5874639 L8.03232054,13.5873239 L7.96718168,13.5873239 L3.41094574,13.5873239 C3.41094574,10.307382 6.33735896,10.3082921 6.98675645,9.45064634 L7.0610688,9.05955373 C6.14869803,8.60420069 5.50463397,7.50708338 5.50463397,6.22355482 C5.50463397,4.53276355 6.62195037,3.16187441 7.99989333,3.16187441 C9.3778363,3.16187441 10.4951527,4.53276355 10.4951527,6.22355482 C10.4951527,7.49602331 9.86253771,8.58663058 8.96232715,9.04884366 L9.04695078,9.49348662 C9.75942488,10.3095521 12.5884854,10.3627524 12.5884854,13.5874639 L8.03232054,13.5874639 Z M12.5123241,10.9549564 L12.5123241,10.9548164 C11.8728823,10.1336409 10.9868231,9.72336816 10.3475947,9.42817619 C10.221797,9.3700758 10.0823458,9.30560537 9.95768596,9.24260495 C10.7496636,8.53742025 11.233085,7.42651284 11.233085,6.22355482 C11.233085,4.47249315 10.2124102,2.99954333 8.8324761,2.56764045 C9.17587738,1.38064254 10.0965683,0.529156861 11.181813,0.529156861 C12.5598982,0.529156861 13.6770724,1.900046 13.6770724,3.59083727 C13.6770724,4.86330576 13.0444574,5.95377303 12.1442468,6.41612611 L12.2288705,6.86076907 C12.9413446,7.67669451 15.7704051,7.72982487 15.7704051,10.9549564 L12.5123241,10.9549564 Z" id="Shape"></path>
                                    </g>
                                </g>
                            </g>
                        </g>
                    </g>
                    <g id="Group-2" transform="translate(333.000000, 35.000000)" fill="#FFFFFF" fill-rule="nonzero">
                        <path d="M13.1620867,0.00144712124 C10.4543733,0.177702205 8.99495273,1.20130836 8.24149056,2.04864396 C8.08710339,2.22336828 8,2.4645806 8,2.71508579 L8,12.5352107 C8,12.9186764 8.37475176,13.1366798 8.63602235,12.9047449 C9.47789426,12.1517449 10.901687,11.3817055 13.2491769,11.245637 C13.6700997,11.2208973 13.9999868,10.8126918 13.9999868,10.319459 L13.9999868,0.927625141 C14,0.394174805 13.6173309,-0.0279467654 13.1620867,0.00144712124 Z" id="Shape"></path>
                        <path d="M0.74967004,11.2448386 C3.09766828,11.3808957 4.52177739,12.1493086 5.36384954,12.9038066 C5.62384514,13.1372835 6,12.9192676 6,12.5343036 L6,2.71500669 C6,2.46297652 5.91289045,2.2218 5.75846898,2.04862106 C5.00483942,1.2013569 3.54509459,0.177837052 0.838099428,0.00159683003 C0.38275407,-0.0293252197 0,0.392760759 0,0.927696757 L0,10.3202694 C0,10.8119299 0.329960405,11.2216471 0.74967004,11.2448386 Z" id="Shape"></path>
                    </g>
                    <path d="M280.827515,39.4223894 L275.160164,35.0971954 C274.995893,34.9676015 274.815195,34.9676015 274.61807,35.0971954 L269.147844,39.4223894 C269.049281,39.5033855 269,39.6167801 269,39.7625732 L269,47.5625017 C269,47.6922147 269.041068,47.7973905 269.123203,47.8783867 C269.205339,47.9593828 269.303901,48 269.418891,48 L272.671458,48 C272.802875,48 272.909651,47.9594622 272.991786,47.8783867 C273.073922,47.7973905 273.11499,47.6922147 273.11499,47.5625017 L273.11499,42.7756694 L276.86037,42.7756694 L276.86037,47.562462 C276.86037,47.692175 276.901437,47.7973508 276.983573,47.878347 C277.065708,47.9593431 277.172485,47.9999603 277.303901,47.9999603 L280.556468,47.9999603 C280.687885,47.9999603 280.794661,47.9594225 280.876797,47.878347 C280.958932,47.7972714 281,47.692175 281,47.562462 L281,39.7625732 C281,39.6167801 280.942505,39.5033855 280.827515,39.4223894 Z" id="Shape" fill="#FFFFFF" fill-rule="nonzero"></path>
                </g>
                <g id="bar-graph-progress" transform="translate(43.000000, 147.000000)" fill="#FFFFFF" fill-rule="nonzero" stroke="#FFFFFF" stroke-width="1.5">
                    <path d="M19.4736842,0 L14.7368421,0 C14.4473684,0 14.2105263,0.236842105 14.2105263,0.526315789 L14.2105263,9.42105263 L10.5263158,9.42105263 L10.5263158,5.78947368 C10.5263158,5.5 10.2894737,5.26315789 10,5.26315789 L5.26315789,5.26315789 C4.97368421,5.26315789 4.73684211,5.5 4.73684211,5.78947368 L4.73684211,13.9210526 L0.526315789,13.9210526 C0.236842105,13.9210526 0,14.1578947 0,14.4473684 L0,19.4736842 C0,19.7631579 0.236842105,20 0.526315789,20 L19.4736842,20 C19.7631579,20 20,19.7631579 20,19.4736842 L20,0.526315789 C20,0.236842105 19.7631579,0 19.4736842,0 Z M4.73684211,18.9473684 L1.05263158,18.9473684 L1.05263158,14.9736842 L4.73684211,14.9736842 L4.73684211,18.9473684 Z M9.47368421,18.9473684 L5.78947368,18.9473684 L5.78947368,6.31578947 L9.47368421,6.31578947 L9.47368421,18.9473684 Z M14.2105263,18.9473684 L10.5263158,18.9473684 L10.5263158,10.4736842 L14.2105263,10.4736842 L14.2105263,18.9473684 Z M18.9473684,18.9473684 L15.2631579,18.9473684 L15.2631579,1.05263158 L18.9473684,1.05263158 L18.9473684,18.9473684 Z" id="Bar_Graph"></path>
                </g>
                <g id="star" transform="translate(42.000000, 197.000000)" fill="#FFFFFF" fill-rule="nonzero" stroke="#FFFFFF" stroke-width="1.5">
                    <path d="M23.3013183,8.31384351 C23.2246934,8.08211522 23.0235533,7.91659501 22.7793116,7.87876182 L15.4999535,6.85726569 L12.2242423,0.354686156 C12.1140941,0.137145314 11.8890087,0 11.644767,0 C11.4005254,0 11.17544,0.137145314 11.0652918,0.359415305 L7.83268209,6.88091144 L0.553323897,7.94969905 C0.309082273,7.98753224 0.107942112,8.15305245 0.0313172892,8.38478074 C-0.0453075339,8.61650903 0.0217391863,8.87188306 0.19893409,9.03740327 L5.48125783,14.0928633 L4.26004971,21.2527945 C4.21694825,21.4939811 4.31751833,21.7351677 4.51865849,21.8770421 C4.62880667,21.9574377 4.76290012,22 4.89699356,22 C5.00235269,22 5.10292277,21.9763543 5.1987038,21.9243336 L11.6974466,18.5240757 L18.2153456,21.8865004 C18.3111266,21.9337919 18.4116967,21.9574377 18.5122668,21.9574377 C18.8666566,21.9574377 19.1587888,21.6689596 19.1587888,21.3190026 C19.1587888,21.2669819 19.1539997,21.2196905 19.1396325,21.172399 L17.880112,14.0550301 L23.1289124,8.97119518 C23.3156854,8.80094583 23.3779431,8.5455718 23.3013183,8.31384351 Z M16.7403178,13.3787618 C16.5870681,13.5253654 16.5200214,13.7381771 16.5583338,13.9462597 L17.6550266,20.155632 L11.9943678,17.2377472 C11.8075948,17.1384351 11.5825094,17.1431642 11.3909473,17.2377472 L5.74944471,20.188736 L6.80782508,13.9699054 C6.84134844,13.7618229 6.77430172,13.5537403 6.62105208,13.4071367 L2.0427189,9.01848667 L8.35947775,8.09157352 C8.57019601,8.05846948 8.75217997,7.93078246 8.84317195,7.74161651 L11.6495561,2.08082545 L14.4942526,7.72742906 C14.5900337,7.91659501 14.7720176,8.04428203 14.9827359,8.07738607 L21.3042838,8.96646604 L16.7403178,13.3787618 Z" id="Shape"></path>
                </g>
                <g id="Group-8" transform="translate(45.000000, 91.000000)" fill="#FFFFFF">
                    <path d="M5.2,24.7 C5.2,25.415 5.785,26 6.5,26 L11.7,26 C12.415,26 13,25.415 13,24.7 L13,23.4 L5.2,23.4 L5.2,24.7 Z M9.1,0 C4.082,0 0,4.082 0,9.1 C0,12.194 1.547,14.911 3.9,16.562 L3.9,19.5 C3.9,20.215 4.485,20.8 5.2,20.8 L13,20.8 C13.715,20.8 14.3,20.215 14.3,19.5 L14.3,16.562 C16.653,14.911 18.2,12.194 18.2,9.1 C18.2,4.082 14.118,0 9.1,0 Z M12.805,14.43 L11.7,15.21 L11.7,18.2 L6.5,18.2 L6.5,15.21 L5.395,14.43 C3.64,13.208 2.6,11.219 2.6,9.1 C2.6,5.512 5.512,2.6 9.1,2.6 C12.688,2.6 15.6,5.512 15.6,9.1 C15.6,11.219 14.56,13.208 12.805,14.43 Z" id="Shape" fill-rule="nonzero"></path>
                    <circle id="Oval-2" cx="9.425" cy="8.775" r="7.475"></circle>
                    <rect id="Rectangle-5" x="5.2" y="14.95" width="7.8" height="4.55"></rect>
                </g>
                <rect id="Rectangle-8" fill="#D7FFA6" x="153" y="127" width="331" height="159" rx="79.5"></rect>
                <g id="growth-(1)-copy" transform="translate(242.000000, 148.000000)" fill-rule="nonzero">
                    <g id="Group" transform="translate(64.527273, 67.363636)" fill="#FFA511">
                        <rect id="Rectangle-path" x="0.228327273" y="18.7969364" width="12.3069818" height="30.7674545"></rect>
                        <rect id="Rectangle-path" x="30.9957818" y="0.336463636" width="12.3069818" height="49.2275727"></rect>
                    </g>
                    <rect id="Rectangle-path" fill="#EC9C18" x="126.290155" y="33.8562545" width="12.3069818" height="83.0717727"></rect>
                    <g id="Group" transform="translate(3.190909, 98.209091)" fill="#FFDC13">
                        <rect id="Rectangle-path" x="0.0301363636" y="6.41195455" width="12.3069818" height="12.3069818"></rect>
                        <rect id="Rectangle-path" x="30.7972364" y="0.258463636" width="12.3069818" height="18.4604727"></rect>
                    </g>
                    <g id="Group" fill="#00D295">
                        <path d="M0.1443,95.3908091 L0.1443,89.2373182 C53.5257273,89.2373182 104.362582,54.9042 129.674645,1.76563636 L135.231082,4.41160909 C108.906791,59.6792182 55.8823909,95.3908091 0.1443,95.3908091 Z" id="Shape"></path>
                        <path d="M138.597136,24.6260182 C137.273973,24.6260182 136.098655,23.7768818 135.680291,22.5214364 L130.646809,7.42701818 L115.358455,15.0880364 C113.838518,15.8478273 111.989564,15.2295 111.229418,13.7095636 C110.469273,12.1896273 111.087955,10.3406727 112.607891,9.58052727 L131.068364,0.350290909 C132.585109,-0.415881818 134.434418,0.193227273 135.200236,1.71032727 C135.267955,1.84576364 135.326455,1.98722727 135.375736,2.13188182 L141.529227,20.5923545 C142.058564,22.2076636 141.175391,23.946 139.563273,24.4721455 C139.2495,24.5767364 138.926509,24.6260182 138.597136,24.6260182 Z" id="Shape"></path>
                    </g>
                    <g id="Group" transform="translate(64.527273, 101.754545)" fill="#F08015">
                        <path d="M12.5353091,15.1734818 L12.5353091,9.85990909 C8.46158182,10.9274455 4.36055455,11.9212364 0.228327273,12.8444727 L0.228327273,15.1734818 L12.5353091,15.1734818 Z" id="Shape"></path>
                        <path d="M43.3027636,15.1734818 L43.3027636,0.2574 C39.2382545,1.73727273 35.1308455,3.12815455 30.9957818,4.46018182 L30.9957818,15.1734818 L43.3027636,15.1734818 Z" id="Shape"></path>
                    </g>
                    <path d="M138.597136,116.928027 L138.597136,89.1022364 C134.539009,91.0373455 130.434436,92.8958727 126.290155,94.6742727 L126.290155,116.928382 L138.597136,116.928382 L138.597136,116.928027 Z" id="Shape" fill="#F08015"></path>
                </g>
                <g id="Group-3" transform="translate(153.000000, 76.000000)">
                    <rect id="Rectangle-6" fill="#E5E5E5" x="31" y="0" width="257.4" height="8.1" rx="4.05"></rect>
                    <rect id="Rectangle-6-Copy" fill="#E5E5E5" x="31" y="14" width="87.3" height="8.1" rx="4.05"></rect>
                    <circle id="Oval" fill="#BABABA" cx="9" cy="11.35" r="9"></circle>
                </g>
            </g>
        </g>
    </g>
</svg>