<?xml version="1.0" encoding="UTF-8" standalone="no"?>
<svg width="152px" height="99px" viewBox="0 0 152 99" version="1.1" xmlns="http://www.w3.org/2000/svg" xmlns:xlink="http://www.w3.org/1999/xlink">
    <!-- Generator: Sketch 48.2 (47327) - http://www.bohemiancoding.com/sketch -->
    <title>Artboard 3</title>
    <desc>Created with Sketch.</desc>
    <defs></defs>
    <g id="Page-2" stroke="none" stroke-width="1" fill="none" fill-rule="evenodd">
        <g id="Artboard-3">
            <g id="more-horizontal" transform="translate(125.000000, 1.000000)" stroke="#FFFFFF" stroke-linecap="round" stroke-linejoin="round" stroke-width="1.5">
                <circle id="Oval" cx="10" cy="2" r="2"></circle>
                <circle id="Oval" cx="18" cy="2" r="2"></circle>
                <circle id="Oval" cx="2" cy="2" r="2"></circle>
            </g>
            <g id="more-horizontal-copy" transform="translate(125.000000, 25.000000)" stroke="#FCCA26" stroke-linecap="round" stroke-linejoin="round" stroke-width="1.5">
                <circle id="Oval" cx="10" cy="2" r="2"></circle>
                <circle id="Oval" cx="18" cy="2" r="2"></circle>
                <circle id="Oval" cx="2" cy="2" r="2"></circle>
            </g>
            <path d="M84,10.0026586 C84.9941125,10.0026586 85.8,9.19653306 85.8,8.20212685 L85.8,5.20124064 C85.8,2.88095949 87.6804041,1 90,1 C92.3195959,1 94.2,2.88095949 94.2,5.20124064 L94.2,8.20212685 C94.2,9.19653306 95.0058875,10.0026586 96,10.0026586 L84,10.0026586 Z M91,12.0032494 C90.7931805,12.6202359 90.4121784,13 90,13 C89.5878216,13 89.2068195,12.6202359 89,12.0032494 L91,12.0032494 Z" id="Shape" stroke="#FFFFFF" stroke-width="1.5" stroke-linecap="round" stroke-linejoin="round"></path>
            <path d="M84,34.0026586 C84.9941125,34.0026586 85.8,33.1965331 85.8,32.2021268 L85.8,29.2012406 C85.8,26.8809595 87.6804041,25 90,25 C92.3195959,25 94.2,26.8809595 94.2,29.2012406 L94.2,32.2021268 C94.2,33.1965331 95.0058875,34.0026586 96,34.0026586 L84,34.0026586 Z M91,36.0032494 C90.7931805,36.6202359 90.4121784,37 90,37 C89.5878216,37 89.2068195,36.6202359 89,36.0032494 L91,36.0032494 Z" id="Shape-Copy" stroke="#FCCA26" stroke-width="1.5" stroke-linecap="round" stroke-linejoin="round"></path>
            <g id="search" transform="translate(38.000000, 0.000000)" fill="#FFFFFF" fill-rule="nonzero">
                <g id="Group">
                    <path d="M6.06666667,11.5948718 C3.01352328,11.5948718 0.538461538,9.11981005 0.538461538,6.06666667 C0.538461538,3.01352328 3.01352328,0.538461538 6.06666667,0.538461538 C9.11981005,0.538461538 11.5948718,3.01352328 11.5948718,6.06666667 C11.5948718,9.11981005 9.11981005,11.5948718 6.06666667,11.5948718 Z M6.06666667,9.87179487 C8.16818095,9.87179487 9.87179487,8.16818095 9.87179487,6.06666667 C9.87179487,3.96515239 8.16818095,2.26153846 6.06666667,2.26153846 C3.96515239,2.26153846 2.26153846,3.96515239 2.26153846,6.06666667 C2.26153846,8.16818095 3.96515239,9.87179487 6.06666667,9.87179487 Z" id="Oval"></path>
                    <path d="M13.2091997,11.9908003 L9.97364413,8.75524476 C9.63719244,8.41879306 9.09169645,8.41879306 8.75524476,8.75524476 C8.41879306,9.09169645 8.41879306,9.63719244 8.75524476,9.97364413 L11.9908003,13.2091997 C12.327252,13.5456514 12.872748,13.5456514 13.2091997,13.2091997 C13.5456514,12.872748 13.5456514,12.327252 13.2091997,11.9908003 Z" id="Shape"></path>
                </g>
            </g>
            <g id="search-copy" transform="translate(38.000000, 25.000000)" fill="#FCCA26" fill-rule="nonzero">
                <g id="Group">
                    <path d="M6.06666667,11.5948718 C3.01352328,11.5948718 0.538461538,9.11981005 0.538461538,6.06666667 C0.538461538,3.01352328 3.01352328,0.538461538 6.06666667,0.538461538 C9.11981005,0.538461538 11.5948718,3.01352328 11.5948718,6.06666667 C11.5948718,9.11981005 9.11981005,11.5948718 6.06666667,11.5948718 Z M6.06666667,9.87179487 C8.16818095,9.87179487 9.87179487,8.16818095 9.87179487,6.06666667 C9.87179487,3.96515239 8.16818095,2.26153846 6.06666667,2.26153846 C3.96515239,2.26153846 2.26153846,3.96515239 2.26153846,6.06666667 C2.26153846,8.16818095 3.96515239,9.87179487 6.06666667,9.87179487 Z" id="Oval"></path>
                    <path d="M13.2091997,11.9908003 L9.97364413,8.75524476 C9.63719244,8.41879306 9.09169645,8.41879306 8.75524476,8.75524476 C8.41879306,9.09169645 8.41879306,9.63719244 8.75524476,9.97364413 L11.9908003,13.2091997 C12.327252,13.5456514 12.872748,13.5456514 13.2091997,13.2091997 C13.5456514,12.872748 13.5456514,12.327252 13.2091997,11.9908003 Z" id="Shape"></path>
                </g>
            </g>
            <g id="chevron-down" transform="translate(1.000000, 1.000000)" stroke="#FFFFFF" stroke-linecap="round" stroke-linejoin="round" stroke-width="1.5">
                <polyline id="Shape" points="0 0 4 4 8 0"></polyline>
            </g>
            <g id="chevron-down-copy" transform="translate(1.000000, 25.000000)" stroke="#FCCA26" stroke-linecap="round" stroke-linejoin="round" stroke-width="1.5">
                <polyline id="Shape" points="0 0 4 4 8 0"></polyline>
            </g>
            <g id="Group-2" transform="translate(39.000000, 50.000000)" fill="#878787" fill-rule="nonzero">
                <path d="M13.1620867,0.00144712124 C10.4543733,0.177702205 8.99495273,1.20130836 8.24149056,2.04864396 C8.08710339,2.22336828 8,2.4645806 8,2.71508579 L8,12.5352107 C8,12.9186764 8.37475176,13.1366798 8.63602235,12.9047449 C9.47789426,12.1517449 10.901687,11.3817055 13.2491769,11.245637 C13.6700997,11.2208973 13.9999868,10.8126918 13.9999868,10.319459 L13.9999868,0.927625141 C14,0.394174805 13.6173309,-0.0279467654 13.1620867,0.00144712124 Z" id="Shape"></path>
                <path d="M0.74967004,11.2448386 C3.09766828,11.3808957 4.52177739,12.1493086 5.36384954,12.9038066 C5.62384514,13.1372835 6,12.9192676 6,12.5343036 L6,2.71500669 C6,2.46297652 5.91289045,2.2218 5.75846898,2.04862106 C5.00483942,1.2013569 3.54509459,0.177837052 0.838099428,0.00159683003 C0.38275407,-0.0293252197 0,0.392760759 0,0.927696757 L0,10.3202694 C0,10.8119299 0.329960405,11.2216471 0.74967004,11.2448386 Z" id="Shape"></path>
            </g>
            <g id="Group-3" transform="translate(39.000000, 79.000000)" fill="#212121" fill-rule="nonzero">
                <path d="M13.1620867,0.00144712124 C10.4543733,0.177702205 8.99495273,1.20130836 8.24149056,2.04864396 C8.08710339,2.22336828 8,2.4645806 8,2.71508579 L8,12.5352107 C8,12.9186764 8.37475176,13.1366798 8.63602235,12.9047449 C9.47789426,12.1517449 10.901687,11.3817055 13.2491769,11.245637 C13.6700997,11.2208973 13.9999868,10.8126918 13.9999868,10.319459 L13.9999868,0.927625141 C14,0.394174805 13.6173309,-0.0279467654 13.1620867,0.00144712124 Z" id="Shape-Copy-2"></path>
                <path d="M0.74967004,11.2448386 C3.09766828,11.3808957 4.52177739,12.1493086 5.36384954,12.9038066 C5.62384514,13.1372835 6,12.9192676 6,12.5343036 L6,2.71500669 C6,2.46297652 5.91289045,2.2218 5.75846898,2.04862106 C5.00483942,1.2013569 3.54509459,0.177837052 0.838099428,0.00159683003 C0.38275407,-0.0293252197 0,0.392760759 0,0.927696757 L0,10.3202694 C0,10.8119299 0.329960405,11.2216471 0.74967004,11.2448386 Z" id="Shape-Copy-3"></path>
            </g>
            <path d="M12.8275154,54.4223894 L7.16016427,50.0971954 C6.99589322,49.9676015 6.81519507,49.9676015 6.61806982,50.0971954 L1.14784394,54.4223894 C1.04928131,54.5033855 1,54.6167801 1,54.7625732 L1,62.5625017 C1,62.6922147 1.04106776,62.7973905 1.12320329,62.8783867 C1.20533881,62.9593828 1.30390144,63 1.41889117,63 L4.67145791,63 C4.80287474,63 4.90965092,62.9594622 4.99178645,62.8783867 C5.07392197,62.7973905 5.11498973,62.6922147 5.11498973,62.5625017 L5.11498973,57.7756694 L8.86036961,57.7756694 L8.86036961,62.562462 C8.86036961,62.692175 8.90143737,62.7973508 8.9835729,62.878347 C9.06570842,62.9593431 9.1724846,62.9999603 9.30390144,62.9999603 L12.5564682,62.9999603 C12.687885,62.9999603 12.7946612,62.9594225 12.8767967,62.878347 C12.9589322,62.7972714 13,62.692175 13,62.562462 L13,54.7625732 C13,54.6167801 12.9425051,54.5033855 12.8275154,54.4223894 Z" id="Shape" fill="#878787" fill-rule="nonzero"></path>
            <path d="M12.8275154,83.4223894 L7.16016427,79.0971954 C6.99589322,78.9676015 6.81519507,78.9676015 6.61806982,79.0971954 L1.14784394,83.4223894 C1.04928131,83.5033855 1,83.6167801 1,83.7625732 L1,91.5625017 C1,91.6922147 1.04106776,91.7973905 1.12320329,91.8783867 C1.20533881,91.9593828 1.30390144,92 1.41889117,92 L4.67145791,92 C4.80287474,92 4.90965092,91.9594622 4.99178645,91.8783867 C5.07392197,91.7973905 5.11498973,91.6922147 5.11498973,91.5625017 L5.11498973,86.7756694 L8.86036961,86.7756694 L8.86036961,91.562462 C8.86036961,91.692175 8.90143737,91.7973508 8.9835729,91.878347 C9.06570842,91.9593431 9.1724846,91.9999603 9.30390144,91.9999603 L12.5564682,91.9999603 C12.687885,91.9999603 12.7946612,91.9594225 12.8767967,91.878347 C12.9589322,91.7972714 13,91.692175 13,91.562462 L13,83.7625732 C13,83.6167801 12.9425051,83.5033855 12.8275154,83.4223894 Z" id="Shape-Copy-4" fill="#212121" fill-rule="nonzero"></path>
            <g id="Group-4" transform="translate(82.000000, 49.000000)" fill="#878787" fill-rule="nonzero">
                <g id="Group-7">
                    <g id="group-(2)">
                        <path d="M0.229808275,10.9548164 C0.229808275,7.6747345 3.15622149,7.6754345 3.80561898,6.81778879 L3.87993133,6.42669618 C2.96756057,5.97134314 2.3234965,4.87422583 2.3234965,3.59069727 C2.3234965,1.899906 3.4408129,0.52901686 4.81875587,0.52901686 C5.90378729,0.52901686 6.82447819,1.38050254 7.1680928,2.56729045 C5.78780313,2.99905333 4.76677278,4.47228315 4.76677278,6.22355482 C4.76677278,7.42924286 5.24962527,8.53777025 6.04231404,9.24204495 C5.91502303,9.30630538 5.77343845,9.37182581 5.65169419,9.42796619 C5.01246576,9.72315815 4.12640655,10.1335009 3.48717812,10.9548164 L0.229808275,10.9548164 Z M8.03232054,13.5874639 L8.03232054,13.5873239 L7.96718168,13.5873239 L3.41094574,13.5873239 C3.41094574,10.307382 6.33735896,10.3082921 6.98675645,9.45064634 L7.0610688,9.05955373 C6.14869803,8.60420069 5.50463397,7.50708338 5.50463397,6.22355482 C5.50463397,4.53276355 6.62195037,3.16187441 7.99989333,3.16187441 C9.3778363,3.16187441 10.4951527,4.53276355 10.4951527,6.22355482 C10.4951527,7.49602331 9.86253771,8.58663058 8.96232715,9.04884366 L9.04695078,9.49348662 C9.75942488,10.3095521 12.5884854,10.3627524 12.5884854,13.5874639 L8.03232054,13.5874639 Z M12.5123241,10.9549564 L12.5123241,10.9548164 C11.8728823,10.1336409 10.9868231,9.72336816 10.3475947,9.42817619 C10.221797,9.3700758 10.0823458,9.30560537 9.95768596,9.24260495 C10.7496636,8.53742025 11.233085,7.42651284 11.233085,6.22355482 C11.233085,4.47249315 10.2124102,2.99954333 8.8324761,2.56764045 C9.17587738,1.38064254 10.0965683,0.529156861 11.181813,0.529156861 C12.5598982,0.529156861 13.6770724,1.900046 13.6770724,3.59083727 C13.6770724,4.86330576 13.0444574,5.95377303 12.1442468,6.41612611 L12.2288705,6.86076907 C12.9413446,7.67669451 15.7704051,7.72982487 15.7704051,10.9549564 L12.5123241,10.9549564 Z" id="Shape"></path>
                    </g>
                </g>
            </g>
            <g id="Group-4-Copy" transform="translate(82.000000, 78.000000)" fill="#212121" fill-rule="nonzero">
                <g id="Group-7">
                    <g id="group-(2)">
                        <path d="M0.229808275,10.9548164 C0.229808275,7.6747345 3.15622149,7.6754345 3.80561898,6.81778879 L3.87993133,6.42669618 C2.96756057,5.97134314 2.3234965,4.87422583 2.3234965,3.59069727 C2.3234965,1.899906 3.4408129,0.52901686 4.81875587,0.52901686 C5.90378729,0.52901686 6.82447819,1.38050254 7.1680928,2.56729045 C5.78780313,2.99905333 4.76677278,4.47228315 4.76677278,6.22355482 C4.76677278,7.42924286 5.24962527,8.53777025 6.04231404,9.24204495 C5.91502303,9.30630538 5.77343845,9.37182581 5.65169419,9.42796619 C5.01246576,9.72315815 4.12640655,10.1335009 3.48717812,10.9548164 L0.229808275,10.9548164 Z M8.03232054,13.5874639 L8.03232054,13.5873239 L7.96718168,13.5873239 L3.41094574,13.5873239 C3.41094574,10.307382 6.33735896,10.3082921 6.98675645,9.45064634 L7.0610688,9.05955373 C6.14869803,8.60420069 5.50463397,7.50708338 5.50463397,6.22355482 C5.50463397,4.53276355 6.62195037,3.16187441 7.99989333,3.16187441 C9.3778363,3.16187441 10.4951527,4.53276355 10.4951527,6.22355482 C10.4951527,7.49602331 9.86253771,8.58663058 8.96232715,9.04884366 L9.04695078,9.49348662 C9.75942488,10.3095521 12.5884854,10.3627524 12.5884854,13.5874639 L8.03232054,13.5874639 Z M12.5123241,10.9549564 L12.5123241,10.9548164 C11.8728823,10.1336409 10.9868231,9.72336816 10.3475947,9.42817619 C10.221797,9.3700758 10.0823458,9.30560537 9.95768596,9.24260495 C10.7496636,8.53742025 11.233085,7.42651284 11.233085,6.22355482 C11.233085,4.47249315 10.2124102,2.99954333 8.8324761,2.56764045 C9.17587738,1.38064254 10.0965683,0.529156861 11.181813,0.529156861 C12.5598982,0.529156861 13.6770724,1.900046 13.6770724,3.59083727 C13.6770724,4.86330576 13.0444574,5.95377303 12.1442468,6.41612611 L12.2288705,6.86076907 C12.9413446,7.67669451 15.7704051,7.72982487 15.7704051,10.9549564 L12.5123241,10.9549564 Z" id="Shape"></path>
                    </g>
                </g>
            </g>
        </g>
    </g>
</svg>