<?xml version="1.0" encoding="UTF-8"?>
<svg width="500px" height="500px" viewBox="0 0 500 500" version="1.1" xmlns="http://www.w3.org/2000/svg" xmlns:xlink="http://www.w3.org/1999/xlink">
    <!-- Generator: Sketch 48.2 (47327) - http://www.bohemiancoding.com/sketch -->
    <title>Artboard</title>
    <desc>Created with Sketch.</desc>
    <defs></defs>
    <g id="Page-1" stroke="none" stroke-width="1" fill="none" fill-rule="evenodd">
        <g id="Artboard">
            <g id="star" transform="translate(146.000000, 147.000000)" fill="#FFFFFF" fill-rule="nonzero" stroke="#FFFFFF" stroke-width="1.5">
                <path d="M34.9519774,12.4707653 C34.8370401,12.1231728 34.5353299,11.8748925 34.1689675,11.8181427 L23.2499302,10.2858985 L18.3363634,0.532029235 C18.1711411,0.205717971 17.833513,0 17.4671506,0 C17.1007881,0 16.76316,0.205717971 16.5979377,0.539122958 L11.7490231,10.3213672 L0.829985845,11.9245486 C0.463623409,11.9812984 0.161913168,12.2295787 0.0469759338,12.5771711 C-0.0679613009,12.9247635 0.0326087795,13.3078246 0.298401135,13.5561049 L8.22188675,21.1392949 L6.39007457,31.8791917 C6.32542238,32.2409716 6.4762775,32.6027515 6.77798774,32.8155632 C6.94321001,32.9361565 7.14435017,33 7.34549033,33 C7.50352903,33 7.65438415,32.9645314 7.7980557,32.8865004 L17.5461699,27.7861135 L27.3230184,32.8297506 C27.46669,32.9006879 27.6175451,32.9361565 27.7684002,32.9361565 C28.2999849,32.9361565 28.7381831,32.5034394 28.7381831,31.9785039 C28.7381831,31.9004729 28.7309996,31.8295357 28.7094488,31.7585985 L26.820168,21.0825451 L34.6933686,13.4567928 C34.9735281,13.2014187 35.0669146,12.8183577 34.9519774,12.4707653 Z M25.1104767,20.0681427 C24.8806022,20.2880482 24.7800321,20.6072657 24.8375007,20.9193895 L26.4825399,30.233448 L17.9915517,25.8566208 C17.7113922,25.7076526 17.3737641,25.7147463 17.086421,25.8566208 L8.62416707,30.283104 L10.2117376,20.9548581 C10.2620227,20.6427343 10.1614526,20.3306105 9.93157811,20.1107051 L3.06407834,13.52773 L12.5392166,12.1373603 C12.855294,12.0877042 13.12827,11.8961737 13.2647579,11.6124248 L17.4743341,3.12123818 L21.741379,11.5911436 C21.8850505,11.8748925 22.1580264,12.066423 22.4741038,12.1160791 L31.9564257,13.4496991 L25.1104767,20.0681427 Z" id="Shape"></path>
            </g>
            <path d="M8,183 C8,184.1 8.9,185 10,185 L18,185 C19.1,185 20,184.1 20,183 L20,181 L8,181 L8,183 Z M14,145 C6.28,145 0,151.28 0,159 C0,163.76 2.38,167.94 6,170.48 L6,175 C6,176.1 6.9,177 8,177 L20,177 C21.1,177 22,176.1 22,175 L22,170.48 C25.62,167.94 28,163.76 28,159 C28,151.28 21.72,145 14,145 Z M19.7,167.2 L18,168.4 L18,173 L10,173 L10,168.4 L8.3,167.2 C5.6,165.32 4,162.26 4,159 C4,153.48 8.48,149 14,149 C19.52,149 24,153.48 24,159 C24,162.26 22.4,165.32 19.7,167.2 Z" id="Shape" fill="#FFFFFF" fill-rule="nonzero"></path>
            <path d="M8,240 C8,241.1 8.9,242 10,242 L18,242 C19.1,242 20,241.1 20,240 L20,238 L8,238 L8,240 Z M14,202 C6.28,202 0,208.28 0,216 C0,220.76 2.38,224.94 6,227.48 L6,232 C6,233.1 6.9,234 8,234 L20,234 C21.1,234 22,233.1 22,232 L22,227.48 C25.62,224.94 28,220.76 28,216 C28,208.28 21.72,202 14,202 Z M19.7,224.2 L18,225.4 L18,230 L10,230 L10,225.4 L8.3,224.2 C5.6,222.32 4,219.26 4,216 C4,210.48 8.48,206 14,206 C19.52,206 24,210.48 24,216 C24,219.26 22.4,222.32 19.7,224.2 Z" id="Shape" fill="#FFFFFF" fill-rule="nonzero"></path>
            <circle id="Oval-2" fill="#FFFFFF" fill-rule="nonzero" cx="14.5" cy="215.5" r="11.5"></circle>
            <rect id="Rectangle-5" fill="#FFFFFF" fill-rule="nonzero" x="8" y="225" width="12" height="7"></rect>
            <g id="bar-graph-progress" transform="translate(68.000000, 149.000000)" fill="#FFFFFF" fill-rule="nonzero" stroke="#FFFFFF" stroke-width="1.5">
                <path d="M28.2368421,0 L21.3684211,0 C20.9486842,0 20.6052632,0.343421053 20.6052632,0.763157895 L20.6052632,13.6605263 L15.2631579,13.6605263 L15.2631579,8.39473684 C15.2631579,7.975 14.9197368,7.63157895 14.5,7.63157895 L7.63157895,7.63157895 C7.21184211,7.63157895 6.86842105,7.975 6.86842105,8.39473684 L6.86842105,20.1855263 L0.763157895,20.1855263 C0.343421053,20.1855263 0,20.5289474 0,20.9486842 L0,28.2368421 C0,28.6565789 0.343421053,29 0.763157895,29 L28.2368421,29 C28.6565789,29 29,28.6565789 29,28.2368421 L29,0.763157895 C29,0.343421053 28.6565789,0 28.2368421,0 Z M6.86842105,27.4736842 L1.52631579,27.4736842 L1.52631579,21.7118421 L6.86842105,21.7118421 L6.86842105,27.4736842 Z M13.7368421,27.4736842 L8.39473684,27.4736842 L8.39473684,9.15789474 L13.7368421,9.15789474 L13.7368421,27.4736842 Z M20.6052632,27.4736842 L15.2631579,27.4736842 L15.2631579,15.1868421 L20.6052632,15.1868421 L20.6052632,27.4736842 Z M27.4736842,27.4736842 L22.1315789,27.4736842 L22.1315789,1.52631579 L27.4736842,1.52631579 L27.4736842,27.4736842 Z" id="Bar_Graph"></path>
            </g>
            <g id="Group-2" transform="translate(68.000000, 208.000000)" fill="#FFFFFF" fill-rule="nonzero">
                <g id="bar-graph-progress" stroke="#FFFFFF" stroke-width="1.5">
                    <path d="M28.2368421,0 L21.3684211,0 C20.9486842,0 20.6052632,0.343421053 20.6052632,0.763157895 L20.6052632,13.6605263 L15.2631579,13.6605263 L15.2631579,8.39473684 C15.2631579,7.975 14.9197368,7.63157895 14.5,7.63157895 L7.63157895,7.63157895 C7.21184211,7.63157895 6.86842105,7.975 6.86842105,8.39473684 L6.86842105,20.1855263 L0.763157895,20.1855263 C0.343421053,20.1855263 0,20.5289474 0,20.9486842 L0,28.2368421 C0,28.6565789 0.343421053,29 0.763157895,29 L28.2368421,29 C28.6565789,29 29,28.6565789 29,28.2368421 L29,0.763157895 C29,0.343421053 28.6565789,0 28.2368421,0 Z M6.86842105,27.4736842 L1.52631579,27.4736842 L1.52631579,21.7118421 L6.86842105,21.7118421 L6.86842105,27.4736842 Z M13.7368421,27.4736842 L8.39473684,27.4736842 L8.39473684,9.15789474 L13.7368421,9.15789474 L13.7368421,27.4736842 Z M20.6052632,27.4736842 L15.2631579,27.4736842 L15.2631579,15.1868421 L20.6052632,15.1868421 L20.6052632,27.4736842 Z M27.4736842,27.4736842 L22.1315789,27.4736842 L22.1315789,1.52631579 L27.4736842,1.52631579 L27.4736842,27.4736842 Z" id="Bar_Graph"></path>
                </g>
                <rect id="Rectangle-6" x="7" y="9" width="8" height="19"></rect>
                <rect id="Rectangle-6-Copy" x="22" y="2" width="7" height="26"></rect>
                <rect id="Rectangle-6-Copy-2" x="15" y="14" width="7" height="14"></rect>
                <rect id="Rectangle-6-Copy-3" x="1" y="22" width="7" height="6"></rect>
            </g>
            <path d="M260.974022,162.835891 L247.741158,149.067583 C246.373187,147.644179 244.147028,147.644098 242.778902,149.067583 C241.549062,150.347105 241.443143,152.298564 242.351328,153.692023 C241.378875,158.751517 239.056235,163.267132 235.615913,166.846578 L229.546349,173.161736 C228.175025,174.588629 226.48783,177.188987 227.14753,179.6313 C227.807229,182.073612 230.453427,183.858813 230.453427,183.858813 C230.453427,183.858813 232.751185,186.240645 237.816723,181.766755 L238.643792,180.906221 L244.433117,186.9298 C245.804441,188.356693 248.023893,188.356774 249.395295,186.9298 C250.763421,185.506396 250.763421,183.19024 249.395295,181.766836 L246.914167,179.185314 L247.741236,178.32478 C249.11256,176.898049 251.428718,174.815032 249.901783,172.828551 L248.789576,171.748272 C251.554453,169.734164 253.084112,169.160624 256.43739,168.462799 C257.899735,169.405134 259.770935,169.25054 260.974022,167.998773 C262.341993,166.57545 262.341993,164.259376 260.974022,162.835891 Z M236.307332,179.816974 C235.861698,180.282719 233.929486,182.076083 232.68476,181.957765 C231.440035,181.839447 229.653669,180.399079 229.329391,178.661848 C229.005114,176.924616 231.023368,175.22543 231.469079,174.759527 L237.113657,168.859145 L241.951911,173.916592 C241.399658,174.493864 236.873197,179.225394 236.307332,179.816974 Z M247.741158,183.487743 C248.197122,183.962157 248.197122,184.734236 247.741158,185.208731 C247.285193,185.683144 246.543062,185.683144 246.087098,185.208731 L240.297773,179.185152 L241.951911,177.464164 L247.741158,183.487743 Z M243.60597,175.743177 C243.957576,175.377344 245.773435,173.733938 247.093917,172.887037 L247.866466,173.690928 C248.70795,174.603672 246.563335,176.254047 246.106201,176.72976 L245.26003,177.464246 L243.60597,175.743177 Z M243.655653,172.352976 L238.593875,167.086382 C241.306495,163.827404 243.249061,159.9804 244.288356,155.801078 L254.502077,166.428078 C250.485288,167.509346 246.787969,169.530514 243.655653,172.352976 Z M259.319729,166.277704 C258.862595,166.753254 258.122804,166.753254 257.66567,166.277704 L244.432961,152.509559 C243.975827,152.033846 243.975827,151.264202 244.432961,150.788571 C244.890095,150.31294 245.629964,150.31294 246.087098,150.788571 L259.319729,164.556635 C259.775693,165.03113 259.775693,165.803127 259.319729,166.277704 Z" id="Shape" stroke="#FFFFFF" stroke-width="0.56" fill="#FFFFFF" fill-rule="nonzero"></path>
            <path d="M252,147 C251.447719,147 251,147.447719 251,148 L251,150 C251,150.552281 251.447719,151 252,151 C252.552281,151 253,150.552281 253,150 L253,148 C253,147.447719 252.552281,147 252,147 Z" id="Shape" fill="#FFFFFF" fill-rule="nonzero"></path>
            <path d="M264,159 L262,159 C261.44772,159 261,159.447719 261,160 C261,160.552281 261.44772,161 262,161 L264,161 C264.55228,161 265,160.552281 265,160 C265,159.447719 264.552214,159 264,159 Z" id="Shape" fill="#FFFFFF" fill-rule="nonzero"></path>
            <path d="M260.707117,150.292881 C260.316673,149.902373 259.683427,149.902373 259.292916,150.292881 L257.292883,152.292902 C256.902372,152.68341 256.902372,153.316586 257.292883,153.707094 C257.683327,154.097602 258.316573,154.097669 258.707084,153.707094 L260.707117,151.707073 C261.097628,151.316565 261.097628,150.683456 260.707117,150.292881 Z" id="Shape" fill="#FFFFFF" fill-rule="nonzero"></path>
            <g id="star" transform="translate(146.000000, 203.000000)" fill="#FFFFFF" fill-rule="nonzero" stroke="#FFFFFF" stroke-width="1.5">
                <path d="M34.9519774,12.4707653 C34.8370401,12.1231728 34.5353299,11.8748925 34.1689675,11.8181427 L23.2499302,10.2858985 L18.3363634,0.532029235 C18.1711411,0.205717971 17.833513,0 17.4671506,0 C17.1007881,0 16.76316,0.205717971 16.5979377,0.539122958 L11.7490231,10.3213672 L0.829985845,11.9245486 C0.463623409,11.9812984 0.161913168,12.2295787 0.0469759338,12.5771711 C-0.0679613009,12.9247635 0.0326087795,13.3078246 0.298401135,13.5561049 L8.22188675,21.1392949 L6.39007457,31.8791917 C6.32542238,32.2409716 6.4762775,32.6027515 6.77798774,32.8155632 C6.94321001,32.9361565 7.14435017,33 7.34549033,33 C7.50352903,33 7.65438415,32.9645314 7.7980557,32.8865004 L17.5461699,27.7861135 L27.3230184,32.8297506 C27.46669,32.9006879 27.6175451,32.9361565 27.7684002,32.9361565 C28.2999849,32.9361565 28.7381831,32.5034394 28.7381831,31.9785039 C28.7381831,31.9004729 28.7309996,31.8295357 28.7094488,31.7585985 L26.820168,21.0825451 L34.6933686,13.4567928 C34.9735281,13.2014187 35.0669146,12.8183577 34.9519774,12.4707653 Z M25.1104767,20.0681427 C24.8806022,20.2880482 24.7800321,20.6072657 24.8375007,20.9193895 L26.4825399,30.233448 L17.9915517,25.8566208 C17.7113922,25.7076526 17.3737641,25.7147463 17.086421,25.8566208 L8.62416707,30.283104 L10.2117376,20.9548581 C10.2620227,20.6427343 10.1614526,20.3306105 9.93157811,20.1107051 L3.06407834,13.52773 L12.5392166,12.1373603 C12.855294,12.0877042 13.12827,11.8961737 13.2647579,11.6124248 L17.4743341,3.12123818 L21.741379,11.5911436 C21.8850505,11.8748925 22.1580264,12.066423 22.4741038,12.1160791 L31.9564257,13.4496991 L25.1104767,20.0681427 Z" id="Shape"></path>
            </g>
            <polygon id="Star" fill="#FFFFFF" fill-rule="nonzero" points="163.29032 228.538597 154.458416 233.181803 156.14516 223.347334 149 216.382525 158.874368 214.947695 163.29032 206 167.706271 214.947695 177.580639 216.382525 170.435479 223.347334 172.122223 233.181803"></polygon>
            <g id="Group-3" transform="translate(226.000000, 202.000000)" fill="#FFFFFF" fill-rule="nonzero">
                <g id="Refer-Friend-(2)">
                    <path d="M34.9447085,16.8358906 L21.333762,3.06758328 C19.9267068,1.64417948 17.6369428,1.64409833 16.2297272,3.06758328 C14.9647494,4.3471048 14.8558047,6.2985638 15.7899372,7.69202257 C14.7896998,12.751517 12.4006983,17.2671316 8.86208168,20.8465783 L2.61910154,27.1617356 C1.20859669,28.5886289 -0.526803563,31.1889873 0.15174465,33.6312996 C0.830292865,36.0736119 3.55209645,37.8588125 3.55209645,37.8588125 C3.55209645,37.8588125 5.91550477,40.2406448 11.1257727,35.7667554 L11.9764719,34.9062209 L17.9312058,40.9297996 C19.3417107,42.3566928 21.6245753,42.3567741 23.0351604,40.9297996 C24.442376,39.5063957 24.442376,37.1902403 23.0351604,35.7668364 L20.483143,33.1853141 L21.3338422,32.3247799 C22.7443471,30.8980488 25.1266812,28.8150323 23.5561197,26.8285513 L22.4121351,25.748272 C25.2560087,23.7341637 26.8293719,23.1606239 30.2784582,22.4627989 C31.7825848,23.4051344 33.7072475,23.2505401 34.9447085,21.9987725 C36.3517638,20.5754499 36.3517638,18.2593755 34.9447085,16.8358906 Z M9.573256,33.8169745 C9.11488896,34.2827186 7.12747124,36.0760835 5.847182,35.9577654 C4.56689276,35.8394474 2.7294879,34.3990786 2.39594538,32.6618477 C2.06240285,30.9246165 4.13832127,29.22543 4.59676655,28.7595267 L10.4026188,22.8591447 L15.3791082,27.9165923 C14.8110772,28.493864 10.1552883,33.2253941 9.573256,33.8169745 Z M21.333762,37.4877428 C21.8027536,37.9621567 21.8027536,38.7342357 21.333762,39.2087306 C20.8647703,39.6831444 20.1014354,39.6831444 19.6324438,39.2087306 L13.6777098,33.1851519 L15.3791082,31.4641643 L21.333762,37.4877428 Z M17.0804264,29.7431766 C17.4420779,29.377344 19.3098186,27.7339379 20.6680288,26.8870374 L21.4626512,27.6909278 C22.3281773,28.6036718 20.1222871,30.2540475 19.6520921,30.7297598 L18.7817446,31.4642455 L17.0804264,29.7431766 Z M17.1315293,26.3529761 L11.9251283,21.0863821 C14.7152516,17.8274041 16.7133197,13.9803998 17.7823094,9.8010785 L28.2878509,20.4280781 C24.1562959,21.5093456 20.35334,23.5305141 17.1315293,26.3529761 Z M33.2431498,20.2777037 C32.7729546,20.7532536 32.0120265,20.7532536 31.5418315,20.2777037 L17.9310454,6.50955867 C17.4608504,6.03384641 17.4608504,5.26420209 17.9310454,4.78857096 C18.4012404,4.31293987 19.1622488,4.31293987 19.6324438,4.78857096 L33.2431498,18.5566348 C33.7121414,19.0311298 33.7121414,19.8031275 33.2431498,20.2777037 Z" id="Shape"></path>
                    <path d="M26,0 C25.4477194,0 25,0.55964924 25,1.25 L25,3.75 C25,4.44035077 25.4477194,5 26,5 C26.5522806,5 27,4.44035077 27,3.75 L27,1.25 C27,0.55964924 26.5522806,0 26,0 Z" id="Shape"></path>
                    <path d="M37.75,11 L35.25,11 C34.5596493,11 34,11.4477194 34,12 C34,12.5522806 34.5596493,13 35.25,13 L37.75,13 C38.4403507,13 39,12.5522806 39,12 C39,11.4477194 38.4402673,11 37.75,11 Z" id="Shape"></path>
                    <path d="M35.6338963,4.36610143 C35.1458413,3.87796619 34.3542836,3.87796619 33.8661453,4.36610143 L31.3661037,6.8661275 C30.8779654,7.35426273 30.8779654,8.14573203 31.3661037,8.6338673 C31.8541586,9.12200257 32.6457163,9.1220859 33.1338546,8.6338673 L35.6338963,6.13384126 C36.1220345,5.64570599 36.1220345,4.85432006 35.6338963,4.36610143 Z" id="Shape"></path>
                </g>
                <polygon id="Path-2" points="9.5 22.5 17.5 8.5 28.5 20 8 36 4.5 37.5 1 32.5"></polygon>
                <polygon id="Path-3" points="20.5 25.5 22 27.5 22 29.5 20 31.5 19 33 16 29.25"></polygon>
            </g>
            <path d="M135.194496,305.2028 C136.087671,301.541841 137.899325,298.956005 140.543077,297.568587 C141.275695,297.184115 142.912545,296.631356 143.319973,296.630837 C143.540396,296.630499 143.54129,296.623217 143.54129,294.815277 L143.54129,293 L146.270646,296.100113 L149,299.200227 L146.270646,302.300342 L143.54129,305.400455 L143.54129,303.585176 L143.54129,301.7699 L142.877339,301.77055 C141.318234,301.772097 139.11788,302.378515 137.934594,303.132767 C137.144287,303.636526 136.397037,304.317894 135.654891,305.211477 L135,306 L135.194496,305.202793 L135.194496,305.2028 Z" id="path7204-copy-2" stroke="#8FC637" stroke-width="2"></path>
            <path d="M135.194496,338.2028 C136.087671,334.541841 137.899325,331.956005 140.543077,330.568587 C141.275695,330.184115 142.912545,329.631356 143.319973,329.630837 C143.540396,329.630499 143.54129,329.623217 143.54129,327.815277 L143.54129,326 L146.270646,329.100113 L149,332.200227 L146.270646,335.300342 L143.54129,338.400455 L143.54129,336.585176 L143.54129,334.7699 L142.877339,334.77055 C141.318234,334.772097 139.11788,335.378515 137.934594,336.132767 C137.144287,336.636526 136.397037,337.317894 135.654891,338.211477 L135,339 L135.194496,338.202793 L135.194496,338.2028 Z" id="path7204-copy-2" stroke="#8FC637" stroke-width="2" fill="#8FC637" fill-rule="nonzero"></path>
            <polygon id="Path-10622-Copy-2" stroke="#FFCF48" stroke-width="2" points="70.0532708 293 84 293 84 304.569302 77.3499753 304.569302 73.2659752 309 73.2659752 304.600203 70 304.600203"></polygon>
            <polygon id="Path-10622-Copy-2" stroke="#FFCF48" stroke-width="2" fill="#FFCF48" fill-rule="nonzero" points="70.0532708 327 84 327 84 338.569302 77.3499753 338.569302 73.2659752 343 73.2659752 338.600203 70 338.600203"></polygon>
            <path d="M10,339.818182 L8.84,338.824176 C4.72,335.307506 2,332.98816 2,330.141689 C2,327.822343 3.936,326 6.4,326 C7.792,326 9.128,326.609958 10,327.573842 C10.872,326.609958 12.208,326 13.6,326 C16.064,326 18,327.822343 18,330.141689 C18,332.98816 15.28,335.307506 11.16,338.831707 L10,339.818182 Z" id="Shape-Copy-2" fill="#FF5A5A" fill-rule="nonzero"></path>
            <path d="M10,306.818182 L8.84,305.824176 C4.72,302.307506 2,299.98816 2,297.141689 C2,294.822343 3.936,293 6.4,293 C7.792,293 9.128,293.609958 10,294.573842 C10.872,293.609958 12.208,293 13.6,293 C16.064,293 18,294.822343 18,297.141689 C18,299.98816 15.28,302.307506 11.16,305.831707 L10,306.818182 Z" id="Shape-Copy-3" stroke="#FF5A5A" stroke-width="2"></path>
            <g id="book-opened-filled-reading-tool" transform="translate(37.000000, 66.000000)" fill="#878787" fill-rule="nonzero">
                <path d="M13.1620867,0.00144712124 C10.4543733,0.177702205 8.99495273,1.20130836 8.24149056,2.04864396 C8.08710339,2.22336828 8,2.4645806 8,2.71508579 L8,12.5352107 C8,12.9186764 8.37475176,13.1366798 8.63602235,12.9047449 C9.47789426,12.1517449 10.901687,11.3817055 13.2491769,11.245637 C13.6700997,11.2208973 13.9999868,10.8126918 13.9999868,10.319459 L13.9999868,0.92762514 C14,0.394174805 13.6173309,-0.0279467654 13.1620867,0.00144712124 Z" id="Shape"></path>
                <path d="M0.74967004,11.2448386 C3.09766828,11.3808957 4.52177739,12.1493086 5.36384954,12.9038066 C5.62384514,13.1372835 6,12.9192676 6,12.5343036 L6,2.71500669 C6,2.46297652 5.91289045,2.2218 5.75846898,2.04862106 C5.00483942,1.2013569 3.54509459,0.177837052 0.838099428,0.00159683003 C0.38275407,-0.0293252199 0,0.392760761 0,0.927696761 L0,10.3202694 C0,10.8119299 0.329960405,11.2216471 0.74967004,11.2448386 Z" id="Shape"></path>
            </g>
            <g id="book-opened-filled-reading-tool" transform="translate(37.000000, 91.000000)" fill="#FFFFFF" fill-rule="nonzero">
                <path d="M14,0.927625139 C14,0.394174805 13.6173309,-0.0279467654 13.1620867,0.00144712124 C10.4543733,0.177702205 8.99495273,1.20130836 8.24149056,2.04864396 C8.08710339,2.22336828 8,2.4645806 8,2.71508579 L8,12.5352107 C8,12.9186764 8.37475176,13.1366798 8.63602235,12.9047449 C9.47789426,12.1517449 10.901687,11.3817055 13.2491769,11.245637 C13.6700997,11.2208973 13.9999868,10.8126918 13.9999868,10.319459 L13.9999868,0.927625139 L14,0.927625139 Z" id="Shape"></path>
                <path d="M0.74967004,11.2448386 C3.09766828,11.3808957 4.52177739,12.1493086 5.36384954,12.9038066 C5.62384514,13.1372835 6,12.9192676 6,12.5343036 L6,2.71500669 C6,2.46297652 5.91289045,2.2218 5.75846898,2.04862106 C5.00483942,1.2013569 3.54509459,0.177837052 0.838099428,0.00159683003 C0.38275407,-0.0293252199 0,0.392760761 0,0.927696761 L0,10.3202694 C0,10.8119299 0.329960405,11.2216471 0.74967004,11.2448386 Z" id="Shape"></path>
            </g>
            <path d="M12.52,69.368 L7,65.096 C6.84,64.968 6.664,64.968 6.472,65.096 L1.144,69.368 C1.048,69.448 1,69.56 1,69.704 L1,77.408 C1,77.5361176 1.04,77.64 1.12,77.72 C1.2,77.8 1.296,77.8401176 1.408,77.8401176 L4.576,77.8401176 C4.704,77.8401176 4.808,77.8000784 4.888,77.72 C4.968,77.64 5.008,77.5361176 5.008,77.408 L5.008,72.6800392 L8.656,72.6800392 L8.656,77.4079608 C8.656,77.5360784 8.696,77.6399608 8.776,77.7199608 C8.856,77.7999608 8.96,77.8400784 9.088,77.8400784 L12.256,77.8400784 C12.384,77.8400784 12.488,77.8000392 12.568,77.7199608 C12.648,77.6398824 12.688,77.5360784 12.688,77.4079608 L12.688,69.704 C12.688,69.56 12.632,69.448 12.52,69.368 Z" id="Shape" fill="#878787" fill-rule="nonzero"></path>
            <path d="M12.52,94.368 L7,90.096 C6.84,89.968 6.664,89.968 6.472,90.096 L1.144,94.368 C1.048,94.448 1,94.56 1,94.704 L1,102.408 C1,102.536118 1.04,102.64 1.12,102.72 C1.2,102.8 1.296,102.840118 1.408,102.840118 L4.576,102.840118 C4.704,102.840118 4.808,102.800078 4.888,102.72 C4.968,102.64 5.008,102.536118 5.008,102.408 L5.008,97.6800392 L8.656,97.6800392 L8.656,102.407961 C8.656,102.536078 8.696,102.639961 8.776,102.719961 C8.856,102.799961 8.96,102.840078 9.088,102.840078 L12.256,102.840078 C12.384,102.840078 12.488,102.800039 12.568,102.719961 C12.648,102.639882 12.688,102.536078 12.688,102.407961 L12.688,94.704 C12.688,94.56 12.632,94.448 12.52,94.368 Z" id="Shape" fill="#FFFFFF" fill-rule="nonzero"></path>
            <g id="Group-7" transform="translate(75.000000, 65.000000)" fill="#878787" fill-rule="nonzero">
                <g id="group-(2)">
                    <path d="M0.229808275,10.9548164 C0.229808275,7.6747345 3.15622149,7.6754345 3.80561898,6.81778879 L3.87993133,6.42669618 C2.96756057,5.97134314 2.3234965,4.87422583 2.3234965,3.59069727 C2.3234965,1.899906 3.4408129,0.52901686 4.81875587,0.52901686 C5.90378729,0.52901686 6.82447819,1.38050254 7.1680928,2.56729045 C5.78780313,2.99905333 4.76677278,4.47228315 4.76677278,6.22355482 C4.76677278,7.42924286 5.24962527,8.53777025 6.04231404,9.24204495 C5.91502303,9.30630538 5.77343845,9.37182581 5.65169419,9.42796619 C5.01246576,9.72315815 4.12640655,10.1335009 3.48717812,10.9548164 L0.229808275,10.9548164 Z M8.03232054,13.5874639 L8.03232054,13.5873239 L7.96718168,13.5873239 L3.41094574,13.5873239 C3.41094574,10.307382 6.33735896,10.3082921 6.98675645,9.45064634 L7.0610688,9.05955373 C6.14869803,8.60420069 5.50463397,7.50708338 5.50463397,6.22355482 C5.50463397,4.53276355 6.62195037,3.16187441 7.99989333,3.16187441 C9.3778363,3.16187441 10.4951527,4.53276355 10.4951527,6.22355482 C10.4951527,7.49602331 9.86253771,8.58663058 8.96232715,9.04884366 L9.04695078,9.49348662 C9.75942488,10.3095521 12.5884854,10.3627524 12.5884854,13.5874639 L8.03232054,13.5874639 Z M12.5123241,10.9549564 L12.5123241,10.9548164 C11.8728823,10.1336409 10.9868231,9.72336816 10.3475947,9.42817619 C10.221797,9.3700758 10.0823458,9.30560537 9.95768596,9.24260495 C10.7496636,8.53742025 11.233085,7.42651284 11.233085,6.22355482 C11.233085,4.47249315 10.2124102,2.99954333 8.8324761,2.56764045 C9.17587738,1.38064254 10.0965683,0.529156861 11.181813,0.529156861 C12.5598982,0.529156861 13.6770724,1.900046 13.6770724,3.59083727 C13.6770724,4.86330576 13.0444574,5.95377303 12.1442468,6.41612611 L12.2288705,6.86076907 C12.9413446,7.67669451 15.7704051,7.72982487 15.7704051,10.9549564 L12.5123241,10.9549564 Z" id="Shape"></path>
                </g>
            </g>
            <g id="Group-7" transform="translate(75.000000, 90.000000)" fill="#FFFFFF" fill-rule="nonzero">
                <g id="group-(2)">
                    <path d="M0.229808275,10.9548164 C0.229808275,7.6747345 3.15622149,7.6754345 3.80561898,6.81778879 L3.87993133,6.42669618 C2.96756057,5.97134314 2.3234965,4.87422583 2.3234965,3.59069727 C2.3234965,1.899906 3.4408129,0.52901686 4.81875587,0.52901686 C5.90378729,0.52901686 6.82447819,1.38050254 7.1680928,2.56729045 C5.78780313,2.99905333 4.76677278,4.47228315 4.76677278,6.22355482 C4.76677278,7.42924286 5.24962527,8.53777025 6.04231404,9.24204495 C5.91502303,9.30630538 5.77343845,9.37182581 5.65169419,9.42796619 C5.01246576,9.72315815 4.12640655,10.1335009 3.48717812,10.9548164 L0.229808275,10.9548164 Z M8.03232054,13.5874639 L8.03232054,13.5873239 L7.96718168,13.5873239 L3.41094574,13.5873239 C3.41094574,10.307382 6.33735896,10.3082921 6.98675645,9.45064634 L7.0610688,9.05955373 C6.14869803,8.60420069 5.50463397,7.50708338 5.50463397,6.22355482 C5.50463397,4.53276355 6.62195037,3.16187441 7.99989333,3.16187441 C9.3778363,3.16187441 10.4951527,4.53276355 10.4951527,6.22355482 C10.4951527,7.49602331 9.86253771,8.58663058 8.96232715,9.04884366 L9.04695078,9.49348662 C9.75942488,10.3095521 12.5884854,10.3627524 12.5884854,13.5874639 L8.03232054,13.5874639 Z M12.5123241,10.9549564 L12.5123241,10.9548164 C11.8728823,10.1336409 10.9868231,9.72336816 10.3475947,9.42817619 C10.221797,9.3700758 10.0823458,9.30560537 9.95768596,9.24260495 C10.7496636,8.53742025 11.233085,7.42651284 11.233085,6.22355482 C11.233085,4.47249315 10.2124102,2.99954333 8.8324761,2.56764045 C9.17587738,1.38064254 10.0965683,0.529156861 11.181813,0.529156861 C12.5598982,0.529156861 13.6770724,1.900046 13.6770724,3.59083727 C13.6770724,4.86330576 13.0444574,5.95377303 12.1442468,6.41612611 L12.2288705,6.86076907 C12.9413446,7.67669451 15.7704051,7.72982487 15.7704051,10.9549564 L12.5123241,10.9549564 Z" id="Shape"></path>
                </g>
            </g>
            <g id="more-horizontal" stroke-linecap="round" stroke-linejoin="round" transform="translate(143.000000, 6.000000)" stroke="#878787" stroke-width="1.5">
                <circle id="Oval" cx="10" cy="2" r="2"></circle>
                <circle id="Oval" cx="18" cy="2" r="2"></circle>
                <circle id="Oval" cx="2" cy="2" r="2"></circle>
            </g>
            <path d="M85,12.0026586 C85.9941125,12.0026586 86.8,11.1965331 86.8,10.2021269 L86.8,7.20124064 C86.8,4.88095949 88.6804041,3 91,3 C93.3195959,3 95.2,4.88095949 95.2,7.20124064 L95.2,10.2021269 C95.2,11.1965331 96.0058875,12.0026586 97,12.0026586 L85,12.0026586 Z M92,14.0032494 C91.7931805,14.6202359 91.4121784,15 91,15 C90.5878216,15 90.2068195,14.6202359 90,14.0032494 L92,14.0032494 Z" id="Shape" stroke="#878787" stroke-width="1.5" stroke-linecap="round" stroke-linejoin="round"></path>
            <g id="search" transform="translate(40.000000, 2.000000)" fill="#878787" fill-rule="nonzero">
                <g id="Group">
                    <path d="M6.06666667,11.5948718 C3.01352328,11.5948718 0.538461538,9.11981005 0.538461538,6.06666667 C0.538461538,3.01352328 3.01352328,0.538461538 6.06666667,0.538461538 C9.11981005,0.538461538 11.5948718,3.01352328 11.5948718,6.06666667 C11.5948718,9.11981005 9.11981005,11.5948718 6.06666667,11.5948718 Z M6.06666667,9.87179487 C8.16818095,9.87179487 9.87179487,8.16818095 9.87179487,6.06666667 C9.87179487,3.96515239 8.16818095,2.26153846 6.06666667,2.26153846 C3.96515239,2.26153846 2.26153846,3.96515239 2.26153846,6.06666667 C2.26153846,8.16818095 3.96515239,9.87179487 6.06666667,9.87179487 Z" id="Oval"></path>
                    <path d="M13.2091997,11.9908003 L9.97364413,8.75524476 C9.63719244,8.41879306 9.09169645,8.41879306 8.75524476,8.75524476 C8.41879306,9.09169645 8.41879306,9.63719244 8.75524476,9.97364413 L11.9908003,13.2091997 C12.327252,13.5456514 12.872748,13.5456514 13.2091997,13.2091997 C13.5456514,12.872748 13.5456514,12.327252 13.2091997,11.9908003 Z" id="Shape"></path>
                </g>
            </g>
            <g id="chevron-down" stroke-linecap="round" stroke-linejoin="round" transform="translate(1.000000, 8.000000)" stroke="#878787" stroke-width="1.5">
                <polyline id="Shape" points="0 0 4 4 8 0"></polyline>
            </g>
            <g id="more-horizontal" stroke-linecap="round" stroke-linejoin="round" transform="translate(143.000000, 26.000000)" stroke="#3F51B5" stroke-width="1.5">
                <circle id="Oval" cx="10" cy="2" r="2"></circle>
                <circle id="Oval" cx="18" cy="2" r="2"></circle>
                <circle id="Oval" cx="2" cy="2" r="2"></circle>
            </g>
            <path d="M85,32.0026586 C85.9941125,32.0026586 86.8,31.1965331 86.8,30.2021268 L86.8,27.2012406 C86.8,24.8809595 88.6804041,23 91,23 C93.3195959,23 95.2,24.8809595 95.2,27.2012406 L95.2,30.2021268 C95.2,31.1965331 96.0058875,32.0026586 97,32.0026586 L85,32.0026586 Z M92,34.0032494 C91.7931805,34.6202359 91.4121784,35 91,35 C90.5878216,35 90.2068195,34.6202359 90,34.0032494 L92,34.0032494 Z" id="Shape" stroke="#3F51B5" stroke-width="1.5" stroke-linecap="round" stroke-linejoin="round"></path>
            <g id="search" transform="translate(40.000000, 22.000000)" fill="#3F51B5" fill-rule="nonzero">
                <g id="Group">
                    <path d="M6.06666667,11.5948718 C3.01352328,11.5948718 0.538461538,9.11981005 0.538461538,6.06666667 C0.538461538,3.01352328 3.01352328,0.538461538 6.06666667,0.538461538 C9.11981005,0.538461538 11.5948718,3.01352328 11.5948718,6.06666667 C11.5948718,9.11981005 9.11981005,11.5948718 6.06666667,11.5948718 Z M6.06666667,9.87179487 C8.16818095,9.87179487 9.87179487,8.16818095 9.87179487,6.06666667 C9.87179487,3.96515239 8.16818095,2.26153846 6.06666667,2.26153846 C3.96515239,2.26153846 2.26153846,3.96515239 2.26153846,6.06666667 C2.26153846,8.16818095 3.96515239,9.87179487 6.06666667,9.87179487 Z" id="Oval"></path>
                    <path d="M13.2091997,11.9908003 L9.97364413,8.75524476 C9.63719244,8.41879306 9.09169645,8.41879306 8.75524476,8.75524476 C8.41879306,9.09169645 8.41879306,9.63719244 8.75524476,9.97364413 L11.9908003,13.2091997 C12.327252,13.5456514 12.872748,13.5456514 13.2091997,13.2091997 C13.5456514,12.872748 13.5456514,12.327252 13.2091997,11.9908003 Z" id="Shape"></path>
                </g>
            </g>
            <g id="chevron-down" stroke-linecap="round" stroke-linejoin="round" transform="translate(1.000000, 28.000000)" stroke="#3F51B5" stroke-width="1.5">
                <polyline id="Shape" points="0 0 4 4 8 0"></polyline>
            </g>
            <g id="Group-2" transform="translate(0.000000, 377.000000)" fill="#878787" fill-rule="nonzero">
                <circle id="Oval" cx="2" cy="2" r="2"></circle>
                <circle id="Oval-Copy" cx="9.5" cy="2" r="2"></circle>
                <circle id="Oval-Copy-2" cx="17" cy="2" r="2"></circle>
            </g>
            <g id="Group-3" transform="translate(0.000000, 393.000000)" fill="#3F51B5" fill-rule="nonzero">
                <circle id="Oval" cx="2" cy="2" r="2"></circle>
                <circle id="Oval-Copy" cx="9.5" cy="2" r="2"></circle>
                <circle id="Oval-Copy-2" cx="17" cy="2" r="2"></circle>
            </g>
            <path d="M26.5454545,422.786667 L26.5454545,425.453333 L31,428 L35.4545455,425.453333 L35.4545455,422.786667 L31,425.333333 L26.5454545,422.786667 Z M31,416 L24,420 L31,424 L36.7272727,420.726667 L36.7272727,425.333333 L38,425.333333 L38,420 L31,416 Z" id="Shape" fill="#878787" fill-rule="nonzero"></path>
            <polygon id="Shape" fill="#878787" fill-rule="nonzero" points="8.5 425.251579 13.135 428 11.905 422.82 16 419.334737 10.6075 418.885263 8.5 414 6.3925 418.885263 1 419.334737 5.095 422.82 3.865 428"></polygon>
            <polygon id="Shape" points="91 416 106 416 106 431 91 431"></polygon>
            <path d="M99,419 C95.8181818,419 93.1009091,420.866 92,423.5 C93.1009091,426.134 95.8181818,428 99,428 C102.181818,428 104.899091,426.134 106,423.5 C104.899091,420.866 102.181818,419 99,419 Z M99,427 C97.344,427 96,425.656 96,424 C96,422.344 97.344,421 99,421 C100.656,421 102,422.344 102,424 C102,425.656 100.656,427 99,427 Z M99,422 C97.8933333,422 97,422.893333 97,424 C97,425.106667 97.8933333,426 99,426 C100.106667,426 101,425.106667 101,424 C101,422.893333 100.106667,422 99,422 Z" id="Shape" fill="#878787" fill-rule="nonzero"></path>
            <path d="M62.8750672,421.83798 L61.7247575,421.315975 C61.5580012,421.240224 61.3653821,421.239849 61.1982398,421.314475 L57.2617102,423.073991 C57.0957259,423.148242 56.904651,423.148242 56.7386667,423.073991 L52.8017509,421.314475 C52.6346087,421.239849 52.4419896,421.240224 52.2752332,421.315975 L51.1249236,421.83798 C50.9577813,421.91373 50.9585531,422.144732 51.1260816,422.219733 L56.7386667,424.728507 C56.904651,424.802758 57.0957259,424.802758 57.2617102,424.728507 L62.8739092,422.219733 C63.0414376,422.144732 63.0422094,421.91373 62.8750672,421.83798 Z M62.8750672,425.053785 L61.7247575,424.53178 C61.5580012,424.456029 61.3653821,424.455654 61.1982398,424.53028 L57.2617102,426.289797 C57.0957259,426.364047 56.904651,426.364047 56.7386667,426.289797 L52.8017509,424.53028 C52.6346087,424.455654 52.4419896,424.456029 52.2752332,424.53178 L51.1249236,425.053785 C50.9577813,425.129535 50.9585531,425.360538 51.1260816,425.435538 L56.7386667,427.944312 C56.904651,428.018563 57.0957259,428.018563 57.2617102,427.944312 L62.8739092,425.435538 C63.0414376,425.360538 63.0422094,425.129535 62.8750672,425.053785 Z M56.6944298,416.065813 L51.1250779,418.593712 C50.9579357,418.669462 50.9587077,418.900465 51.1262359,418.975465 L56.7384349,421.484239 C56.9044192,421.55849 57.0954944,421.55849 57.2614786,421.484239 L62.8740635,418.975465 C63.041592,418.900465 63.0419779,418.669462 62.8752215,418.593712 L57.3058696,416.065813 C57.1120925,415.978062 56.8882069,415.978062 56.6944298,416.065813 Z" id="Buffer" fill="#878787" fill-rule="nonzero"></path>
            <path d="M14.23,449 L2.89,449 C1.8505,449 1,449.7875 1,450.75 L1,461.25 C1,462.2125 1.8505,463 2.89,463 L14.23,463 C15.2695,463 16.12,462.2125 16.12,461.25 L16.12,450.75 C16.12,449.7875 15.2695,449 14.23,449 Z M6.67,459.9375 L6.67,452.0625 L12.34,456 L6.67,459.9375 Z" id="Shape" fill="#FFFFFF" fill-rule="nonzero"></path>
            <path d="M499.5,499.316081 L362,499.316081" id="Path" stroke="#979797"></path>
            <path d="M499.5,499.316081 L499.5,319.5" id="Path-Copy" stroke="#979797"></path>
        </g>
    </g>
</svg>