<?xml version="1.0" encoding="UTF-8" standalone="no"?>
<svg width="119px" height="34px" viewBox="0 0 119 34" version="1.1" xmlns="http://www.w3.org/2000/svg" xmlns:xlink="http://www.w3.org/1999/xlink">
    <!-- Generator: Sketch 49.3 (51167) - http://www.bohemiancoding.com/sketch -->
    <title>Group Copy</title>
    <desc>Created with Sketch.</desc>
    <defs></defs>
    <g id="Ekdum-Final" stroke="none" stroke-width="1" fill="none" fill-rule="evenodd">
        <g id="Group-Copy">
            <path d="M7.96396396,10.6162428 C9.0700756,10.6162428 10.1057828,10.8217488 11.0711166,11.2327668 C12.0364504,11.6437849 12.8811048,12.2101793 13.6051051,12.9319672 C14.3291054,13.653755 14.8972361,14.4958281 15.3095141,15.4582119 C15.721792,16.4205957 15.9279279,17.4531378 15.9279279,18.5558691 C15.9279279,19.6586005 15.721792,20.6911426 15.3095141,21.6535264 C14.8972361,22.6159102 14.3291054,23.4579833 13.6051051,24.1797711 C12.8811048,24.901559 12.0364504,25.4679534 11.0711166,25.8789715 C10.1057828,26.2899895 9.0700756,26.4954955 7.96396396,26.4954955 C6.85785233,26.4954955 5.82214515,26.2899895 4.85681136,25.8789715 C3.89147756,25.4679534 3.04682317,24.901559 2.32282282,24.1797711 C1.59882248,23.4579833 1.03069184,22.6159102 0.618413868,21.6535264 C0.206135895,20.6911426 0,19.6586005 0,18.5558691 L0,1.53849304 C-1.04056554e-16,0.688806796 0.688806796,1.56084831e-16 1.53849304,0 L1.53849304,0 C2.38817928,-1.56084831e-16 3.07698608,0.688806796 3.07698608,1.53849304 L3.07698608,12.2703316 C3.76076418,11.7490404 4.51491989,11.3430409 5.33947584,11.0523208 C6.16403179,10.7616007 7.03885241,10.6162428 7.96396396,10.6162428 Z M7.96396396,23.3978382 C8.62763095,23.3978382 9.25609404,23.2725297 9.8493721,23.021909 C10.4426502,22.7712882 10.9605037,22.4254367 11.4029484,21.9843442 C11.8453931,21.5432516 12.1923047,21.0269806 12.4436937,20.4355155 C12.6950827,19.8440505 12.8207753,19.217508 12.8207753,18.5558691 C12.8207753,17.8942303 12.6950827,17.2676878 12.4436937,16.6762228 C12.1923047,16.0847577 11.8453931,15.5684867 11.4029484,15.1273941 C10.9605037,14.6863016 10.4426502,14.3404501 9.8493721,14.0898293 C9.25609404,13.8392086 8.62763095,13.7139001 7.96396396,13.7139001 C7.30029698,13.7139001 6.67183389,13.8392086 6.07855583,14.0898293 C5.48527777,14.3404501 4.96742418,14.6863016 4.52497952,15.1273941 C4.08253487,15.5684867 3.73059554,16.0797454 3.46915097,16.6611856 C3.2077064,17.2426258 3.07698608,17.864156 3.07698608,18.5257948 L3.07698608,18.5558691 C3.07698608,19.217508 3.2077064,19.8440505 3.46915097,20.4355155 C3.73059554,21.0269806 4.08253487,21.5432516 4.52497952,21.9843442 C4.96742418,22.4254367 5.48527777,22.7712882 6.07855583,23.021909 C6.67183389,23.2725297 7.30029698,23.3978382 7.96396396,23.3978382 Z" id="b-copy" fill="#FFFFFF"></path>
            <path d="M58.1981982,10.6162428 C59.3043098,10.6162428 60.340017,10.8217488 61.3053508,11.2327668 C62.2706846,11.6437849 63.115339,12.2101793 63.8393393,12.9319672 C64.5633397,13.653755 65.1314703,14.4958281 65.5437483,15.4582119 C65.9560263,16.4205957 66.1621622,17.4531378 66.1621622,18.5558691 C66.1621622,19.6586005 65.9560263,20.6911426 65.5437483,21.6535264 C65.1314703,22.6159102 64.5633397,23.4579833 63.8393393,24.1797711 C63.115339,24.901559 62.2706846,25.4679534 61.3053508,25.8789715 C60.340017,26.2899895 59.3043098,26.4954955 58.1981982,26.4954955 C57.0920866,26.4954955 56.0563794,26.2899895 55.0910456,25.8789715 C54.1257118,25.4679534 53.2810574,24.901559 52.5570571,24.1797711 C51.8330567,23.4579833 51.2649261,22.6159102 50.8526481,21.6535264 C50.4403701,20.6911426 50.2342342,19.6586005 50.2342342,18.5558691 L50.2342342,1.53849304 C50.2342342,0.688806796 50.923041,1.56084831e-16 51.7727273,0 L51.7727273,0 C52.6224135,-1.56084831e-16 53.3112203,0.688806796 53.3112203,1.53849304 L53.3112203,12.2703316 C53.9949984,11.7490404 54.7491541,11.3430409 55.5737101,11.0523208 C56.398266,10.7616007 57.2730866,10.6162428 58.1981982,10.6162428 Z M58.1981982,23.3978382 C58.8618652,23.3978382 59.4903283,23.2725297 60.0836063,23.021909 C60.6768844,22.7712882 61.194738,22.4254367 61.6371826,21.9843442 C62.0796273,21.5432516 62.4265389,21.0269806 62.6779279,20.4355155 C62.9293169,19.8440505 63.0550096,19.217508 63.0550096,18.5558691 C63.0550096,17.8942303 62.9293169,17.2676878 62.6779279,16.6762228 C62.4265389,16.0847577 62.0796273,15.5684867 61.6371826,15.1273941 C61.194738,14.6863016 60.6768844,14.3404501 60.0836063,14.0898293 C59.4903283,13.8392086 58.8618652,13.7139001 58.1981982,13.7139001 C57.5345312,13.7139001 56.9060681,13.8392086 56.3127901,14.0898293 C55.719512,14.3404501 55.2016584,14.6863016 54.7592138,15.1273941 C54.3167691,15.5684867 53.9648298,16.0797454 53.7033852,16.6611856 C53.4419406,17.2426258 53.3112203,17.864156 53.3112203,18.5257948 L53.3112203,18.5558691 C53.3112203,19.217508 53.4419406,19.8440505 53.7033852,20.4355155 C53.9648298,21.0269806 54.3167691,21.5432516 54.7592138,21.9843442 C55.2016584,22.4254367 55.719512,22.7712882 56.3127901,23.021909 C56.9060681,23.2725297 57.5345312,23.3978382 58.1981982,23.3978382 Z" id="b-copy-3" fill="#FFFFFF"></path>
            <path d="M31.2432432,12.1024431 L31.2432432,19.5873601 C31.2432432,20.7940273 30.9673697,21.9001224 30.4156143,22.9056784 C29.8638589,23.9112344 29.1164924,24.7257226 28.1734923,25.3491673 C27.611705,25.7111675 27.009799,25.992719 26.3677564,26.1938302 C25.7257138,26.3949414 25.0535855,26.4954955 24.3513514,26.4954955 C23.6491172,26.4954955 22.9769889,26.3949414 22.3349463,26.1938302 C21.6929037,25.992719 21.0909977,25.7111675 20.5292104,25.3491673 C19.6062742,24.7257226 18.8639235,23.9112344 18.3021362,22.9056784 C17.7403489,21.9001224 17.4594595,20.7940273 17.4594595,19.5873601 L17.4594595,12.1024431 C17.4594595,11.2547547 18.1466466,10.5675676 18.9943349,10.5675676 L18.9943349,10.5675676 C19.8420233,10.5675676 20.5292104,11.2547547 20.5292104,12.1024431 L20.5292104,19.5873601 C20.5292104,20.1102492 20.6295281,20.6029643 20.8301664,21.0655201 C21.0308047,21.5280758 21.3016624,21.9302922 21.6427476,22.2721813 C21.9838327,22.6140703 22.3901192,22.8855664 22.8616193,23.0866776 C23.3331193,23.2877888 23.8296917,23.3883429 24.3513514,23.3883429 C24.873011,23.3883429 25.3645675,23.2877888 25.8260356,23.0866776 C26.2875038,22.8855664 26.6937903,22.6140703 27.0449074,22.2721813 C27.3960244,21.9302922 27.671898,21.5280758 27.8725363,21.0655201 C28.0731746,20.6029643 28.1734923,20.1102492 28.1734923,19.5873601 L28.1734923,12.1024431 C28.1734923,11.2547547 28.8606794,10.5675676 29.7083678,10.5675676 L29.7083678,10.5675676 C30.5560561,10.5675676 31.2432432,11.2547547 31.2432432,12.1024431 Z" id="u-copy" fill="#FFFFFF"></path>
            <path d="M40.7387387,10.6162428 C41.8448504,10.6162428 42.8805576,10.8217488 43.8458913,11.2327668 C44.8112251,11.6437849 45.6558795,12.2101793 46.3798799,12.9319672 C47.1038802,13.653755 47.6720109,14.4958281 48.0842888,15.4582119 C48.4965668,16.4205957 48.7027027,17.4531378 48.7027027,18.5558691 C48.7027027,19.6586005 48.4965668,20.6911426 48.0842888,21.6535264 C47.6720109,22.6159102 47.1038802,23.4579833 46.3798799,24.1797711 C45.6558795,24.901559 44.8112251,25.4679534 43.8458913,25.8789715 C42.8805576,26.2899895 41.8448504,26.4954955 40.7387387,26.4954955 C39.6326271,26.4954955 38.5969199,26.2899895 37.6315861,25.8789715 C36.6662523,25.4679534 35.8215979,24.901559 35.0975976,24.1797711 C34.3735973,23.4579833 33.8054666,22.6159102 33.3931886,21.6535264 C32.9809107,20.6911426 32.7747748,19.6586005 32.7747748,18.5558691 L32.7747748,1.53849304 C32.7747748,0.688806796 33.4635816,1.56084831e-16 34.3132678,0 L34.3132678,0 C35.1629541,-1.56084831e-16 35.8517609,0.688806796 35.8517609,1.53849304 L35.8517609,12.2703316 C36.535539,11.7490404 37.2896947,11.3430409 38.1142506,11.0523208 C38.9388066,10.7616007 39.8136272,10.6162428 40.7387387,10.6162428 Z M40.7387387,23.3978382 C41.4024057,23.3978382 42.0308688,23.2725297 42.6241469,23.021909 C43.2174249,22.7712882 43.7352785,22.4254367 44.1777232,21.9843442 C44.6201678,21.5432516 44.9670795,21.0269806 45.2184685,20.4355155 C45.4698575,19.8440505 45.5955501,19.217508 45.5955501,18.5558691 C45.5955501,17.8942303 45.4698575,17.2676878 45.2184685,16.6762228 C44.9670795,16.0847577 44.6201678,15.5684867 44.1777232,15.1273941 C43.7352785,14.6863016 43.2174249,14.3404501 42.6241469,14.0898293 C42.0308688,13.8392086 41.4024057,13.7139001 40.7387387,13.7139001 C40.0750718,13.7139001 39.4466087,13.8392086 38.8533306,14.0898293 C38.2600525,14.3404501 37.742199,14.6863016 37.2997543,15.1273941 C36.8573096,15.5684867 36.5053703,16.0797454 36.2439257,16.6611856 C35.9824812,17.2426258 35.8517609,17.864156 35.8517609,18.5257948 L35.8517609,18.5558691 C35.8517609,19.217508 35.9824812,19.8440505 36.2439257,20.4355155 C36.5053703,21.0269806 36.8573096,21.5432516 37.2997543,21.9843442 C37.742199,22.4254367 38.2600525,22.7712882 38.8533306,23.021909 C39.4466087,23.2725297 40.0750718,23.3978382 40.7387387,23.3978382 Z" id="b-copy-2" fill="#FFFFFF" transform="translate(40.738739, 13.247748) scale(-1, 1) translate(-40.738739, -13.247748) "></path>
            <path d="M110.576577,10.6162428 C111.682688,10.6162428 112.718395,10.8217488 113.683729,11.2327668 C114.649063,11.6437849 115.493717,12.2101793 116.217718,12.9319672 C116.941718,13.653755 117.509849,14.4958281 117.922127,15.4582119 C118.334405,16.4205957 118.540541,17.4531378 118.540541,18.5558691 C118.540541,19.6586005 118.334405,20.6911426 117.922127,21.6535264 C117.509849,22.6159102 116.941718,23.4579833 116.217718,24.1797711 C115.493717,24.901559 114.649063,25.4679534 113.683729,25.8789715 C112.718395,26.2899895 111.682688,26.4954955 110.576577,26.4954955 C109.470465,26.4954955 108.434758,26.2899895 107.469424,25.8789715 C106.50409,25.4679534 105.659436,24.901559 104.935435,24.1797711 C104.211435,23.4579833 103.643304,22.6159102 103.231026,21.6535264 C102.818749,20.6911426 102.612613,19.6586005 102.612613,18.5558691 L102.612613,1.53849304 C102.612613,0.688806796 103.301419,1.56084831e-16 104.151106,0 L104.151106,0 C105.000792,-1.56084831e-16 105.689599,0.688806796 105.689599,1.53849304 L105.689599,12.2703316 C106.373377,11.7490404 107.127533,11.3430409 107.952088,11.0523208 C108.776644,10.7616007 109.651465,10.6162428 110.576577,10.6162428 Z M110.576577,23.3978382 C111.240244,23.3978382 111.868707,23.2725297 112.461985,23.021909 C113.055263,22.7712882 113.573116,22.4254367 114.015561,21.9843442 C114.458006,21.5432516 114.804917,21.0269806 115.056306,20.4355155 C115.307695,19.8440505 115.433388,19.217508 115.433388,18.5558691 C115.433388,17.8942303 115.307695,17.2676878 115.056306,16.6762228 C114.804917,16.0847577 114.458006,15.5684867 114.015561,15.1273941 C113.573116,14.6863016 113.055263,14.3404501 112.461985,14.0898293 C111.868707,13.8392086 111.240244,13.7139001 110.576577,13.7139001 C109.91291,13.7139001 109.284447,13.8392086 108.691168,14.0898293 C108.09789,14.3404501 107.580037,14.6863016 107.137592,15.1273941 C106.695147,15.5684867 106.343208,16.0797454 106.081764,16.6611856 C105.820319,17.2426258 105.689599,17.864156 105.689599,18.5257948 L105.689599,18.5558691 C105.689599,19.217508 105.820319,19.8440505 106.081764,20.4355155 C106.343208,21.0269806 106.695147,21.5432516 107.137592,21.9843442 C107.580037,22.4254367 108.09789,22.7712882 108.691168,23.021909 C109.284447,23.2725297 109.91291,23.3978382 110.576577,23.3978382 Z" id="b-copy-4" fill="#F9BE00" transform="translate(110.576577, 13.247748) scale(-1, 1) translate(-110.576577, -13.247748) "></path>
            <path d="M82.5959298,19.5571936 L70.8913459,19.5571936 C71.0120126,20.1001938 71.2181485,20.607992 71.5097598,21.0806033 C71.801371,21.5532147 72.158338,21.9604588 72.5806716,22.3023478 C73.0030051,22.6442369 73.4756094,22.9107052 73.9984985,23.1017609 C74.5213876,23.2928165 75.0744352,23.3883429 75.6576577,23.3883429 C76.3615469,23.3883429 77.0201762,23.2475672 77.6335654,22.9660115 C78.2469546,22.6844558 78.784919,22.2922948 79.2474747,21.7895168 C79.2474747,21.7895168 79.2474747,21.7895168 79.2474747,21.7895168 L79.2474747,21.7895168 C79.8522874,21.1321117 80.8755171,21.0894771 81.5329221,21.6942898 C81.8323814,21.9697923 82.0169969,22.348044 82.0499552,22.7536193 C82.0746045,23.0568343 82.0253262,23.2885201 81.9021294,23.4486759 C81.1858794,24.379801 80.2731422,25.1128601 79.1871417,25.6659159 C78.1011412,26.2189717 76.9246583,26.4954955 75.6576577,26.4954955 C74.551546,26.4954955 73.5158388,26.2893596 72.5505051,25.8770816 C71.5851713,25.4648037 70.7405169,24.896673 70.0165165,24.1726727 C69.2925162,23.4486723 68.7243855,22.6040179 68.3121076,21.6386841 C67.8998296,20.6733503 67.6936937,19.6376432 67.6936937,18.5315315 C67.6936937,17.4254199 67.8998296,16.3897127 68.3121076,15.4243789 C68.7243855,14.4590451 69.2925162,13.6143907 70.0165165,12.8903904 C70.7405169,12.16639 71.5851713,11.5982594 72.5505051,11.1859814 C73.5158388,10.7737035 74.551546,10.5675676 75.6576577,10.5675676 C76.9246583,10.5675676 78.1011412,10.8440913 79.1871417,11.3971471 C80.2731422,11.950203 81.1781291,12.699331 81.9021294,13.6445536 C82.5657964,14.4489985 83.048456,15.394207 83.3501229,16.4802075 C83.5311229,17.1237633 83.6216216,17.8075312 83.6216216,18.5315315 C83.6216216,18.5315315 83.6216216,18.5315315 83.6216216,18.5315315 L83.6216216,18.5315315 C83.6216216,19.0980055 83.1624037,19.5572234 82.5959298,19.5572234 Z M75.6576577,13.6747202 C74.6722127,13.6747202 73.7923644,13.9311331 73.0180863,14.4439667 C72.2438081,14.9568003 71.6555667,15.6355404 71.2533443,16.4802075 L80.0619711,16.4802075 C79.9614155,16.3193185 79.8658891,16.158432 79.775389,15.997543 C79.684889,15.836654 79.5893626,15.6858229 79.488807,15.545045 C79.0262512,14.9618225 78.4631483,14.5043014 77.7994813,14.1724679 C77.1358143,13.8406344 76.4218802,13.6747202 75.6576577,13.6747202 Z" id="e-copy-5" fill="#FFFFFF"></path>
            <path d="M100.055389,19.5571936 L88.3508054,19.5571936 C88.4714721,20.1001938 88.677608,20.607992 88.9692192,21.0806033 C89.2608305,21.5532147 89.6177975,21.9604588 90.040131,22.3023478 C90.4624646,22.6442369 90.9350688,22.9107052 91.457958,23.1017609 C91.9808471,23.2928165 92.5338946,23.3883429 93.1171171,23.3883429 C93.8210063,23.3883429 94.4796357,23.2475672 95.0930248,22.9660115 C95.706414,22.6844558 96.2443784,22.2922948 96.7069342,21.7895168 C96.7069342,21.7895168 96.7069342,21.7895168 96.7069342,21.7895168 L96.7069342,21.7895168 C97.3117469,21.1321117 98.3349765,21.0894771 98.9923816,21.6942898 C99.2918409,21.9697923 99.4764564,22.348044 99.5094147,22.7536193 C99.534064,23.0568343 99.4847857,23.2885201 99.3615889,23.4486759 C98.6453388,24.379801 97.7326017,25.1128601 96.6466011,25.6659159 C95.5606006,26.2189717 94.3841177,26.4954955 93.1171171,26.4954955 C92.0110055,26.4954955 90.9752983,26.2893596 90.0099645,25.8770816 C89.0446307,25.4648037 88.1999763,24.896673 87.475976,24.1726727 C86.7519756,23.4486723 86.183845,22.6040179 85.771567,21.6386841 C85.359289,20.6733503 85.1531532,19.6376432 85.1531532,18.5315315 C85.1531532,17.4254199 85.359289,16.3897127 85.771567,15.4243789 C86.183845,14.4590451 86.7519756,13.6143907 87.475976,12.8903904 C88.1999763,12.16639 89.0446307,11.5982594 90.0099645,11.1859814 C90.9752983,10.7737035 92.0110055,10.5675676 93.1171171,10.5675676 C94.3841177,10.5675676 95.5606006,10.8440913 96.6466011,11.3971471 C97.7326017,11.950203 98.6375885,12.699331 99.3615889,13.6445536 C100.025256,14.4489985 100.507915,15.394207 100.809582,16.4802075 C100.990582,17.1237633 101.081081,17.8075312 101.081081,18.5315315 C101.081081,18.5315315 101.081081,18.5315315 101.081081,18.5315315 L101.081081,18.5315315 C101.081081,19.0980055 100.621863,19.5572234 100.055389,19.5572234 Z M93.1171171,13.6747202 C92.1316722,13.6747202 91.2518239,13.9311331 90.4775457,14.4439667 C89.7032676,14.9568003 89.1150261,15.6355404 88.7128037,16.4802075 L97.5214305,16.4802075 C97.4208749,16.3193185 97.3253485,16.158432 97.2348485,15.997543 C97.1443484,15.836654 97.0488221,15.6858229 96.9482664,15.545045 C96.4857107,14.9618225 95.9226077,14.5043014 95.2589408,14.1724679 C94.5952738,13.8406344 93.8813397,13.6747202 93.1171171,13.6747202 Z" id="e-copy-6" fill="#F9BE00"></path>
            <path d="M55.8328478,29.9124808 C55.7814079,30.0725757 55.6750813,30.3265285 55.5156371,30.6227984 C55.2613319,31.0953335 54.9304534,31.5644751 54.5118941,32.0023441 C53.3222449,33.2468766 51.6699701,33.9948949 49.5452642,33.9948949 C47.4205731,33.9948949 45.7683096,33.2468902 44.578646,32.002385 C43.856399,31.2468436 43.437453,30.4684609 43.2567935,29.9099347 C43.0065295,29.1230885 43.4751006,28.3069869 44.2662661,28.0843829 C45.0333878,27.8677217 45.8568416,28.2820827 46.1008618,29.0383295 C46.1188502,29.092973 46.1648204,29.201841 46.2444063,29.3471231 C46.3785264,29.591956 46.5552248,29.836128 46.7780416,30.061768 C47.4133713,30.7051473 48.3004008,31.0896945 49.5452642,31.0896945 C50.7927944,31.0896945 51.6848435,30.6951817 52.3265633,30.0360526 C52.5498038,29.8067559 52.726388,29.5601408 52.8595879,29.3154024 C52.9344352,29.1778796 52.9792791,29.0714404 52.9861121,29.0496397 C53.2292116,28.2853191 54.053324,27.8671018 54.8236175,28.084201 C55.6155261,28.307199 56.0841087,29.1232593 55.8328478,29.9124808 Z" id="Shape" fill="#FFFFFF" fill-rule="nonzero"></path>
        </g>
    </g>
</svg>