<?xml version="1.0" encoding="UTF-8"?>
<svg width="18px" height="18px" viewBox="0 0 18 18" version="1.1" xmlns="http://www.w3.org/2000/svg" xmlns:xlink="http://www.w3.org/1999/xlink">
    <!-- Generator: Sketch 48.2 (47327) - http://www.bohemiancoding.com/sketch -->
    <title>Bar_Graph</title>
    <desc>Created with Sketch.</desc>
    <defs></defs>
    <g id="1_Home-Copy" stroke="none" stroke-width="1" fill="none" fill-rule="evenodd" transform="translate(-34.000000, -276.000000)">
        <path d="M50.5789474,277 L46.7894737,277 C46.5578947,277 46.3684211,277.189474 46.3684211,277.421053 L46.3684211,284.536842 L43.4210526,284.536842 L43.4210526,281.631579 C43.4210526,281.4 43.2315789,281.210526 43,281.210526 L39.2105263,281.210526 C38.9789474,281.210526 38.7894737,281.4 38.7894737,281.631579 L38.7894737,288.136842 L35.4210526,288.136842 C35.1894737,288.136842 35,288.326316 35,288.557895 L35,292.578947 C35,292.810526 35.1894737,293 35.4210526,293 L50.5789474,293 C50.8105263,293 51,292.810526 51,292.578947 L51,277.421053 C51,277.189474 50.8105263,277 50.5789474,277 Z M38.7894737,292.157895 L35.8421053,292.157895 L35.8421053,288.978947 L38.7894737,288.978947 L38.7894737,292.157895 Z M42.5789474,292.157895 L39.6315789,292.157895 L39.6315789,282.052632 L42.5789474,282.052632 L42.5789474,292.157895 Z M46.3684211,292.157895 L43.4210526,292.157895 L43.4210526,285.378947 L46.3684211,285.378947 L46.3684211,292.157895 Z M50.1578947,292.157895 L47.2105263,292.157895 L47.2105263,277.842105 L50.1578947,277.842105 L50.1578947,292.157895 Z" id="Bar_Graph" stroke="#FCCA26" fill="#FCCA26" fill-rule="nonzero"></path>
    </g>
</svg>