<?xml version="1.0" encoding="UTF-8" standalone="no"?>
<svg width="39px" height="45px" viewBox="0 0 39 45" version="1.1" xmlns="http://www.w3.org/2000/svg" xmlns:xlink="http://www.w3.org/1999/xlink">
    <!-- Generator: Sketch 50.2 (55047) - http://www.bohemiancoding.com/sketch -->
    <title>star (2)</title>
    <desc>Created with Sketch.</desc>
    <defs></defs>
    <g id="Page-1" stroke="none" stroke-width="1" fill="none" fill-rule="evenodd">
        <g id="2a.-Payment-Success" transform="translate(-246.000000, -109.000000)" fill-rule="nonzero">
            <g id="Group-3" transform="translate(246.000000, 109.000000)">
                <g id="Group-7">
                    <g id="star-(2)">
                        <circle id="Oval" fill="#FF4B4E" cx="1.73171035" cy="31.3545375" r="1.31682506"></circle>
                        <circle id="Oval" fill="#FFCA54" cx="7.82781776" cy="16.0806806" r="1.31682506"></circle>
                        <circle id="Oval" fill="#00CDB3" cx="25.8815901" cy="12.9088269" r="1.31682506"></circle>
                        <g id="Group" transform="translate(11.648669, 4.904703)" fill="#57BAE5">
                            <circle id="Oval" cx="25.3732527" cy="26.4498349" r="1.31682506"></circle>
                            <circle id="Oval" cx="1.39503755" cy="1.3401224" r="1.31682506"></circle>
                        </g>
                        <path d="M35.6372187,22.2588541 C34.9848933,22.1640883 25.0865904,20.7257842 24.4777941,20.6373244 L19.4870841,10.5251414 C19.0297206,9.59762714 17.7022103,9.59683889 17.2440585,10.5251414 L12.2533484,20.6373244 L1.09392385,22.2588541 C0.622809646,22.3272572 0.231484446,22.6573612 0.0842557839,23.1100828 C-0.06279771,23.5628919 0.0599074389,24.059931 0.400784269,24.3922246 L8.47576401,32.2633088 L6.56949879,43.3778029 C6.39485635,44.39693 7.46793521,45.1779163 8.38423875,44.696292 L18.3656589,39.4487857 C29.2250208,45.1579471 28.4928187,44.8397546 28.9288118,44.8397546 C29.6996383,44.8397546 30.2931949,44.1449509 30.1616438,43.3776277 L28.2553786,32.2633088 L36.3304459,24.3922246 C37.0711436,23.6701823 36.6617761,22.4077469 35.6372187,22.2588541 Z" id="Shape" fill="#FFCA54"></path>
                        <path d="M6.32925595,12.4141526 C5.57296833,12.269639 4.26096038,11.3237321 4.7073759,8.77854181 C4.87028209,7.84918825 4.66953962,7.77307778 3.57631645,7.52477721 C2.50805471,7.28225718 0.893794464,6.91563066 0.777658113,4.65631444 C0.757251047,4.26043488 1.06178053,3.92306141 1.45757251,3.90265434 C1.8544155,3.88189694 2.19091313,4.18677675 2.21114503,4.58256874 C2.26895045,5.7064463 2.79839558,5.87600888 3.89407111,6.12483495 C4.87825224,6.34834926 6.52526888,6.72242041 6.12124401,9.02649204 C5.81478768,10.7731793 6.59069411,11.0025617 6.59866426,11.0040506 C6.98797502,11.078497 7.24328231,11.454495 7.1690111,11.8438933 C7.09438955,12.2337296 6.71777846,12.488599 6.32925595,12.4141526 Z" id="Shape" fill="#F99830"></path>
                        <circle id="Oval" fill="#57BAE5" cx="2.16796613" cy="14.225652" r="1"></circle>
                        <circle id="Oval" fill="#00CDB3" cx="32.9759797" cy="33.2173611" r="1"></circle>
                        <circle id="Oval" fill="#FFCA54" cx="2.99791188" cy="39.008939" r="1"></circle>
                        <g id="Group" transform="translate(9.196317, 10.685245)" fill="#FF4B4E">
                            <path d="M21.1970736,2.33709079 C20.912776,2.06076335 20.9063824,1.6062901 21.1826223,1.3220801 L22.1798534,0.296209003 C22.4560933,0.0119990046 22.9105665,0.00551779042 23.1947765,0.281845231 C23.4791617,0.558172672 23.4854677,1.01264592 23.2092279,1.29685592 L22.2120843,2.32272702 C21.9351438,2.60719977 21.4807581,2.61298031 21.1970736,2.33709079 Z" id="Shape"></path>
                            <path d="M1.79293155,1.94261256 L0.466822586,1.40633589 C0.0993202276,1.25779346 -0.0782124896,0.839404816 0.0704175159,0.471814873 C0.218959937,0.104312514 0.637261002,-0.073220203 1.00493853,0.0754098024 L2.33122266,0.611686481 C2.69872502,0.760228902 2.87608257,1.17861755 2.72754015,1.54620749 C2.57926048,1.91327193 2.161047,2.09141774 1.79293155,1.94261256 Z" id="Shape"></path>
                        </g>
                        <path d="M4.43796759,36.1961797 L3.11168346,35.659903 C2.74426869,35.5113606 2.56664839,35.0928843 2.71536598,34.725382 C2.8639084,34.357792 3.28229704,34.1806972 3.64988699,34.3289769 L4.97617112,34.8653412 C5.34341073,35.013796 5.52111861,35.4322722 5.37248861,35.7998622 C5.22315793,36.1691162 4.80310519,36.3440214 4.43796759,36.1961797 Z" id="Shape" fill="#00CDB3"></path>
                        <path d="M34.7074273,38.6477427 L33.3811431,38.111466 C33.0137283,37.9629236 32.8361956,37.5444474 32.9848256,37.176945 C33.1333681,36.8095302 33.5517567,36.6320851 33.9193466,36.7806275 L35.2456308,37.3168166 C35.6130456,37.465359 35.7904907,37.8838353 35.6419483,38.2513376 C35.494632,38.6157746 35.0787833,38.7974237 34.7074273,38.6477427 Z" id="Shape" fill="#57BAE5"></path>
                        <g id="Group" fill="#F99830">
                            <path d="M26.1838424,0.59294351 C26.1149138,0.202581734 25.7423316,-0.0576302555 25.3520574,0.0109479969 C24.9616956,0.0798765851 24.7010457,0.452283647 24.7700619,0.842645423 C24.9658121,1.95084546 24.4879539,2.23470512 23.4760086,2.7228982 C22.5669746,3.16134358 21.0457285,3.89529729 21.9563391,6.05012582 C22.6486904,7.68908474 21.9344431,8.08443881 21.9344431,8.08443881 C21.7335255,8.21765403 21.0984541,8.45369285 21.369614,9.09971224 C21.8380131,10.2163203 24.7446625,8.96097923 23.2784192,5.49151523 C22.9112672,4.62241945 23.0897633,4.50321766 24.0996941,4.015988 C25.0864152,3.53988152 26.5773572,2.8207295 26.1838424,0.59294351 Z" id="Shape"></path>
                            <path d="M37.1187017,11.0516087 C36.79359,10.8249414 36.3462986,10.9046428 36.1194561,11.2298421 C35.5943902,11.9828015 35.4923548,12.8787856 35.4024061,13.6691434 C35.2473825,15.0315997 35.1894019,15.5418639 33.7652864,15.4505139 C32.1970078,15.3502302 31.0252218,15.6863775 30.2819842,16.4487084 C29.3662061,17.3878714 29.3986998,18.683326 30.2619274,18.6977773 C30.9796781,18.7097763 31.0283748,17.9449055 31.0283748,17.9449055 C31.0283748,17.9449055 31.1767421,16.7247731 33.6738488,16.8832125 C37.6058437,17.1336151 36.3492764,13.4101576 37.2968475,12.0508543 C37.5237776,11.7257426 37.4439886,11.2783636 37.1187017,11.0516087 Z" id="Shape"></path>
                            <path d="M15.4237132,19.1941157 L19.5946372,10.7427876 L19.4871717,10.5250539 C19.0298082,9.59753956 17.7022978,9.5967513 17.2441461,10.5250539 L12.253436,20.6372368 L13.9428433,20.3371741 C14.0616948,20.3149278 14.9683641,20.1163749 15.4237132,19.1941157 Z" id="Shape"></path>
                            <path d="M9.26366945,42.899244 L10.961222,33.0016418 C11.1609135,31.8355487 10.4513081,31.084341 10.449031,31.0820638 L3.09477975,23.9134906 C2.50122316,23.3349984 2.62392831,22.3433727 3.35052496,21.9308522 L1.09383626,22.258679 C0.622722062,22.3270821 0.231396862,22.6571861 0.0841681999,23.1099076 C-0.062885294,23.5627168 0.0598198549,24.0597558 0.400696685,24.3920494 L8.47567642,32.2631337 L6.56949879,43.3777153 C6.39485635,44.3968424 7.46793521,45.1778287 8.38423875,44.6962044 L9.65026511,44.0307414 C9.34021784,43.7457431 9.1912375,43.3206981 9.26366945,42.899244 Z" id="Shape"></path>
                        </g>
                    </g>
                </g>
            </g>
        </g>
    </g>
</svg>