<?xml version="1.0" encoding="UTF-8"?>
<svg width="116px" height="203px" viewBox="0 0 116 203" version="1.1" xmlns="http://www.w3.org/2000/svg" xmlns:xlink="http://www.w3.org/1999/xlink">
    <!-- Generator: Sketch 48.2 (47327) - http://www.bohemiancoding.com/sketch -->
    <title>Group 6</title>
    <desc>Created with Sketch.</desc>
    <defs></defs>
    <g id="Page-1" stroke="none" stroke-width="1" fill="none" fill-rule="evenodd">
        <g id="Group-6">
            <g id="ic_video_library_black_24px-copy-3" fill="#FFFFFF" fill-rule="nonzero">
                <path d="M22.68,0 L3.24,0 C1.458,0 3.69482223e-13,1.35 3.69482223e-13,3 L3.69482223e-13,21 C3.69482223e-13,22.65 1.458,24 3.24,24 L22.68,24 C24.462,24 25.92,22.65 25.92,21 L25.92,3 C25.92,1.35 24.462,0 22.68,0 Z M9.72,18.75 L9.72,5.25 L19.44,12 L9.72,18.75 Z" id="Shape"></path>
            </g>
            <g id="Article" transform="translate(45.000000, 0.000000)" fill="#FFFFFF" fill-rule="nonzero">
                <path d="M22.68,0 C24.462,0 25.92,1.35 25.92,3 L25.92,21 C25.92,22.65 24.462,24 22.68,24 L3.24,24 C1.458,24 0,22.65 0,21 L0,3 C0,1.35 1.458,0 3.24,0 L22.68,0 Z M7.6356308,17 L6.7604781,19 L19.520352,19 L18.715761,17 L7.6356308,17 Z M15.139423,13.7335165 L15.902473,16 L18.3125,16 L14.195055,5 L12.09478,5 L8,16 L10.4100275,16 L11.165522,13.7335165 L15.139423,13.7335165 Z M11.7774725,11.8976648 L13.144918,7.7802198 L14.527473,11.8976648 L11.7774725,11.8976648 Z" id="Shape"></path>
            </g>
            <g id="E-Book" transform="translate(90.000000, 0.000000)" fill="#FFFFFF" fill-rule="nonzero">
                <path d="M22.68,0 C24.462,0 25.92,1.35 25.92,3 L25.92,21 C25.92,22.65 24.462,24 22.68,24 L3.24,24 C1.458,24 0,22.65 0,21 L0,3 C0,1.35 1.458,0 3.24,0 L22.68,0 Z M16.252708,11.2328297 L16.252708,9.4574176 L11.266484,9.4574176 L11.266484,6.8358516 L16.993093,6.8358516 L16.993093,5 L9,5 L9,16 L17.008203,16 L17.008203,14.1792582 L11.266484,14.1792582 L11.266484,11.2328297 L16.252708,11.2328297 Z M9,17 L9,19 L17,19 L17,17 L9,17 Z" id="Shape"></path>
            </g>
            <g id="Group-3" transform="translate(37.000000, 103.000000)" fill="#878787" fill-rule="nonzero">
                <path d="M12,0 L2,0 C0.9,0 0.01,0.9 0.01,2 L0,18 L7,15 L14,18 L14,2 C14,0.9 13.1,0 12,0 Z M12,15 L7,12.82 L2,15 L2,2 L12,2 L12,15 Z" id="Shape"></path>
            </g>
            <polygon id="Path-3" fill="#FFCC4B" fill-rule="nonzero" points="38 155.588548 43.9855291 152.689741 50.1621135 155.588548 50.1621135 140 38 140"></polygon>
            <path d="M49,139 L39,139 C37.9,139 37.01,139.9 37.01,141 L37,157 L44,154 L51,157 L51,141 C51,139.9 50.1,139 49,139 Z M49,154 L44,151.82 L39,154 L39,141 L49,141 L49,154 Z" id="Shape" fill="#FFCC4B" fill-rule="nonzero"></path>
            <g id="Group-4" transform="translate(1.000000, 103.000000)" fill="#878787" fill-rule="nonzero">
                <path d="M14.5,0 C12.76,0 11.09,0.81 10,2.09 C8.91,0.81 7.24,0 5.5,0 C2.42,0 0,2.42 0,5.5 C0,9.28 3.4,12.36 8.55,17.04 L10,18.35 L11.45,17.03 C16.6,12.36 20,9.28 20,5.5 C20,2.42 17.58,0 14.5,0 Z M10.1,15.55 L10,15.65 L9.9,15.55 C5.14,11.24 2,8.39 2,5.5 C2,3.5 3.5,2 5.5,2 C7.04,2 8.54,2.99 9.07,4.36 L10.94,4.36 C11.46,2.99 12.96,2 14.5,2 C16.5,2 18,3.5 18,5.5 C18,8.39 14.86,11.24 10.1,15.55 Z" id="Shape"></path>
            </g>
            <path d="M15.5,139 C13.76,139 12.09,139.81 11,141.09 C9.91,139.81 8.24,139 6.5,139 C3.42,139 1,141.42 1,144.5 C1,148.28 4.4,151.36 9.55,156.04 L11,157.35 L12.45,156.03 C17.6,151.36 21,148.28 21,144.5 C21,141.42 18.58,139 15.5,139 Z M11.1,154.55 L11,154.65 L10.9,154.55 C6.14,150.24 3,147.39 3,144.5 C3,142.5 4.5,141 6.5,141 C8.04,141 9.54,141.99 10.07,143.36 L11.94,143.36 C12.46,141.99 13.96,141 15.5,141 C17.5,141 19,142.5 19,144.5 C19,147.39 15.86,150.24 11.1,154.55 Z" id="Shape" fill="#FF6960" fill-rule="nonzero"></path>
            <g id="Group-2" transform="translate(0.000000, 179.000000)" stroke="#878787">
                <polyline id="Shape" stroke-width="1.5" stroke-linecap="round" stroke-linejoin="round" transform="translate(12.000000, 12.500000) scale(-1, 1) rotate(-90.000000) translate(-12.000000, -12.500000) " points="7 10 12 15 17 10"></polyline>
                <rect id="Rectangle-2" x="0.5" y="0.5" width="23" height="23" rx="2"></rect>
            </g>
            <g id="Group" transform="translate(45.000000, 179.000000)" stroke="#878787">
                <polyline id="Shape" stroke-width="1.5" stroke-linecap="round" stroke-linejoin="round" transform="translate(12.000000, 12.500000) rotate(-90.000000) translate(-12.000000, -12.500000) " points="7 10 12 15 17 10"></polyline>
                <rect id="Rectangle-2" transform="translate(12.000000, 12.000000) scale(-1, 1) translate(-12.000000, -12.000000) " x="0.5" y="0.5" width="23" height="23" rx="2"></rect>
            </g>
            <polygon id="Path-2" fill="#FF6960" fill-rule="nonzero" points="10.9924298 156.013456 17.8954889 149.293448 19.8051368 145.27483 18.6273233 141.330172 15.3987833 140 12.553726 140.728137 10.9924298 142.863363 7.90866651 140.728137 4.55568871 140.728137 2 142.863363 2 146.97554 4.55568871 150.193541 8.44006931 153.91521"></polygon>
            <g id="Group-5" transform="translate(0.000000, 41.000000)">
                <rect id="Rectangle" fill="#FFFFFF" x="6" y="4" width="33" height="33"></rect>
                <g id="ic_video_library_black_24px-copy-3" fill="#FCCA26" fill-rule="nonzero">
                    <path d="M38.4313725,0 L5.49019608,0 C2.47058824,0 3.69482223e-13,2.25 3.69482223e-13,5 L3.69482223e-13,35 C3.69482223e-13,37.75 2.47058824,40 5.49019608,40 L38.4313725,40 C41.4509804,40 43.9215686,37.75 43.9215686,35 L43.9215686,5 C43.9215686,2.25 41.4509804,0 38.4313725,0 Z M16.4705882,31.25 L16.4705882,8.75 L32.9411765,20 L16.4705882,31.25 Z" id="Shape"></path>
                </g>
            </g>
        </g>
    </g>
</svg>