<?xml version="1.0" encoding="UTF-8" standalone="no"?>
<svg width="149px" height="43px" viewBox="0 0 149 43" version="1.1" xmlns="http://www.w3.org/2000/svg" xmlns:xlink="http://www.w3.org/1999/xlink">
    <!-- Generator: Sketch 48.2 (47327) - http://www.bohemiancoding.com/sketch -->
    <title>Group</title>
    <desc>Created with Sketch.</desc>
    <defs></defs>
    <g id="Artboard-Copy" stroke="none" stroke-width="1" fill="none" fill-rule="evenodd" transform="translate(-597.000000, -174.000000)">
        <g id="Group" transform="translate(597.000000, 174.000000)">
            <path d="M10,13.6231555 C11.3888958,13.6231555 12.6893879,13.8868683 13.9015152,14.4143019 C15.1136424,14.9417355 16.1742379,15.6685538 17.0833333,16.5947787 C17.9924288,17.5210035 18.7058055,18.6015829 19.2234848,19.8365494 C19.7411642,21.0715158 20,22.396512 20,23.8115778 C20,25.2266435 19.7411642,26.5516397 19.2234848,27.7866061 C18.7058055,29.0215726 17.9924288,30.102152 17.0833333,31.0283768 C16.1742379,31.9546017 15.1136424,32.68142 13.9015152,33.2088536 C12.6893879,33.7362872 11.3888958,34 10,34 C8.61110417,34 7.31061212,33.7362872 6.09848485,33.2088536 C4.88635758,32.68142 3.82576212,31.9546017 2.91666667,31.0283768 C2.00757121,30.102152 1.29419451,29.0215726 0.776515152,27.7866061 C0.258835795,26.5516397 0,25.2266435 0,23.8115778 L2.22044605e-16,1.93181818 C9.13853576e-17,0.864904461 0.864904461,1.95988871e-16 1.93181818,0 L1.93181818,0 C2.9987319,-1.95988871e-16 3.86363636,0.864904461 3.86363636,1.93181818 L3.86363636,15.7457435 C4.72222652,15.0768033 5.66918674,14.5558097 6.70454545,14.1827469 C7.73990417,13.8096841 8.83837803,13.6231555 10,13.6231555 Z M10,30.0249716 C10.8333375,30.0249716 11.622471,29.8641711 12.3674242,29.5425653 C13.1123775,29.2209594 13.7626235,28.77715 14.3181818,28.2111237 C14.8737402,27.6450974 15.3093419,26.9825993 15.625,26.2236095 C15.9406581,25.4646197 16.0984848,24.6606172 16.0984848,23.8115778 C16.0984848,22.9625383 15.9406581,22.1585358 15.625,21.399546 C15.3093419,20.6405562 14.8737402,19.9780581 14.3181818,19.4120318 C13.7626235,18.8460055 13.1123775,18.4021961 12.3674242,18.0805902 C11.622471,17.7589844 10.8333375,17.5981839 10,17.5981839 C9.1666625,17.5981839 8.37752898,17.7589844 7.63257576,18.0805902 C6.88762254,18.4021961 6.23737652,18.8460055 5.68181818,19.4120318 C5.12625985,19.9780581 4.68434508,20.6341242 4.35606061,21.3802497 C4.02777614,22.1263753 3.86363636,22.9239458 3.86363636,23.7729852 L3.86363636,23.8115778 C3.86363636,24.6606172 4.02777614,25.4646197 4.35606061,26.2236095 C4.68434508,26.9825993 5.12625985,27.6450974 5.68181818,28.2111237 C6.23737652,28.77715 6.88762254,29.2209594 7.63257576,29.5425653 C8.37752898,29.8641711 9.1666625,30.0249716 10,30.0249716 Z" id="b-copy" fill="#3F51B5"></path>
            <path d="M73,13.6231555 C74.3888958,13.6231555 75.6893879,13.8868683 76.9015152,14.4143019 C78.1136424,14.9417355 79.1742379,15.6685538 80.0833333,16.5947787 C80.9924288,17.5210035 81.7058055,18.6015829 82.2234848,19.8365494 C82.7411642,21.0715158 83,22.396512 83,23.8115778 C83,25.2266435 82.7411642,26.5516397 82.2234848,27.7866061 C81.7058055,29.0215726 80.9924288,30.102152 80.0833333,31.0283768 C79.1742379,31.9546017 78.1136424,32.68142 76.9015152,33.2088536 C75.6893879,33.7362872 74.3888958,34 73,34 C71.6111042,34 70.3106121,33.7362872 69.0984848,33.2088536 C67.8863576,32.68142 66.8257621,31.9546017 65.9166667,31.0283768 C65.0075712,30.102152 64.2941945,29.0215726 63.7765152,27.7866061 C63.2588358,26.5516397 63,25.2266435 63,23.8115778 L63,1.93181818 C63,0.864904461 63.8649045,1.95988871e-16 64.9318182,0 L64.9318182,0 C65.9987319,-1.95988871e-16 66.8636364,0.864904461 66.8636364,1.93181818 L66.8636364,15.7457435 C67.7222265,15.0768033 68.6691867,14.5558097 69.7045455,14.1827469 C70.7399042,13.8096841 71.838378,13.6231555 73,13.6231555 Z M73,30.0249716 C73.8333375,30.0249716 74.622471,29.8641711 75.3674242,29.5425653 C76.1123775,29.2209594 76.7626235,28.77715 77.3181818,28.2111237 C77.8737402,27.6450974 78.3093419,26.9825993 78.625,26.2236095 C78.9406581,25.4646197 79.0984848,24.6606172 79.0984848,23.8115778 C79.0984848,22.9625383 78.9406581,22.1585358 78.625,21.399546 C78.3093419,20.6405562 77.8737402,19.9780581 77.3181818,19.4120318 C76.7626235,18.8460055 76.1123775,18.4021961 75.3674242,18.0805902 C74.622471,17.7589844 73.8333375,17.5981839 73,17.5981839 C72.1666625,17.5981839 71.377529,17.7589844 70.6325758,18.0805902 C69.8876225,18.4021961 69.2373765,18.8460055 68.6818182,19.4120318 C68.1262598,19.9780581 67.6843451,20.6341242 67.3560606,21.3802497 C67.0277761,22.1263753 66.8636364,22.9239458 66.8636364,23.7729852 L66.8636364,23.8115778 C66.8636364,24.6606172 67.0277761,25.4646197 67.3560606,26.2236095 C67.6843451,26.9825993 68.1262598,27.6450974 68.6818182,28.2111237 C69.2373765,28.77715 69.8876225,29.2209594 70.6325758,29.5425653 C71.377529,29.8641711 72.1666625,30.0249716 73,30.0249716 Z" id="b-copy-3" fill="#3F51B5"></path>
            <path d="M39,14.8930131 L39,24.3257576 C39,25.8409167 38.6597559,27.2297917 37.9792576,28.4924242 C37.2987593,29.7550568 36.3770073,30.7777739 35.2139738,31.5606061 C34.5211028,32.0151538 33.7787521,32.3686856 32.9868996,32.6212121 C32.195047,32.8737386 31.3660888,33 30.5,33 C29.6339112,33 28.804953,32.8737386 28.0131004,32.6212121 C27.2212479,32.3686856 26.4788972,32.0151538 25.7860262,31.5606061 C24.6477381,30.7777739 23.7321723,29.7550568 23.0393013,28.4924242 C22.3464303,27.2297917 22,25.8409167 22,24.3257576 L22,14.8930131 C22,13.8475308 22.8475308,13 23.8930131,13 L23.8930131,13 C24.9384954,13 25.7860262,13.8475308 25.7860262,14.8930131 L25.7860262,24.3257576 C25.7860262,24.9823265 25.9097513,25.6010072 26.1572052,26.1818182 C26.4046592,26.7626292 26.738717,27.2676746 27.1593886,27.6969697 C27.5800603,28.1262648 28.081147,28.4671705 28.6626638,28.719697 C29.2441805,28.9722235 29.8566198,29.0984848 30.5,29.0984848 C31.1433802,29.0984848 31.7496333,28.9722235 32.3187773,28.719697 C32.8879213,28.4671705 33.389008,28.1262648 33.8220524,27.6969697 C34.2550968,27.2676746 34.5953408,26.7626292 34.8427948,26.1818182 C35.0902487,25.6010072 35.2139738,24.9823265 35.2139738,24.3257576 L35.2139738,14.8930131 C35.2139738,13.8475308 36.0615046,13 37.1069869,13 L37.1069869,13 C38.1524692,13 39,13.8475308 39,14.8930131 Z" id="u-copy" fill="#3F51B5"></path>
            <path d="M51,13.6231555 C52.3888958,13.6231555 53.6893879,13.8868683 54.9015152,14.4143019 C56.1136424,14.9417355 57.1742379,15.6685538 58.0833333,16.5947787 C58.9924288,17.5210035 59.7058055,18.6015829 60.2234848,19.8365494 C60.7411642,21.0715158 61,22.396512 61,23.8115778 C61,25.2266435 60.7411642,26.5516397 60.2234848,27.7866061 C59.7058055,29.0215726 58.9924288,30.102152 58.0833333,31.0283768 C57.1742379,31.9546017 56.1136424,32.68142 54.9015152,33.2088536 C53.6893879,33.7362872 52.3888958,34 51,34 C49.6111042,34 48.3106121,33.7362872 47.0984848,33.2088536 C45.8863576,32.68142 44.8257621,31.9546017 43.9166667,31.0283768 C43.0075712,30.102152 42.2941945,29.0215726 41.7765152,27.7866061 C41.2588358,26.5516397 41,25.2266435 41,23.8115778 L41,1.93181818 C41,0.864904461 41.8649045,1.95988871e-16 42.9318182,0 L42.9318182,0 C43.9987319,-1.95988871e-16 44.8636364,0.864904461 44.8636364,1.93181818 L44.8636364,15.7457435 C45.7222265,15.0768033 46.6691867,14.5558097 47.7045455,14.1827469 C48.7399042,13.8096841 49.838378,13.6231555 51,13.6231555 Z M51,30.0249716 C51.8333375,30.0249716 52.622471,29.8641711 53.3674242,29.5425653 C54.1123775,29.2209594 54.7626235,28.77715 55.3181818,28.2111237 C55.8737402,27.6450974 56.3093419,26.9825993 56.625,26.2236095 C56.9406581,25.4646197 57.0984848,24.6606172 57.0984848,23.8115778 C57.0984848,22.9625383 56.9406581,22.1585358 56.625,21.399546 C56.3093419,20.6405562 55.8737402,19.9780581 55.3181818,19.4120318 C54.7626235,18.8460055 54.1123775,18.4021961 53.3674242,18.0805902 C52.622471,17.7589844 51.8333375,17.5981839 51,17.5981839 C50.1666625,17.5981839 49.377529,17.7589844 48.6325758,18.0805902 C47.8876225,18.4021961 47.2373765,18.8460055 46.6818182,19.4120318 C46.1262598,19.9780581 45.6843451,20.6341242 45.3560606,21.3802497 C45.0277761,22.1263753 44.8636364,22.9239458 44.8636364,23.7729852 L44.8636364,23.8115778 C44.8636364,24.6606172 45.0277761,25.4646197 45.3560606,26.2236095 C45.6843451,26.9825993 46.1262598,27.6450974 46.6818182,28.2111237 C47.2373765,28.77715 47.8876225,29.2209594 48.6325758,29.5425653 C49.377529,29.8641711 50.1666625,30.0249716 51,30.0249716 Z" id="b-copy-2" fill="#3F51B5" transform="translate(51.000000, 17.000000) scale(-1, 1) translate(-51.000000, -17.000000) "></path>
            <path d="M139,13.6231555 C140.388896,13.6231555 141.689388,13.8868683 142.901515,14.4143019 C144.113642,14.9417355 145.174238,15.6685538 146.083333,16.5947787 C146.992429,17.5210035 147.705805,18.6015829 148.223485,19.8365494 C148.741164,21.0715158 149,22.396512 149,23.8115778 C149,25.2266435 148.741164,26.5516397 148.223485,27.7866061 C147.705805,29.0215726 146.992429,30.102152 146.083333,31.0283768 C145.174238,31.9546017 144.113642,32.68142 142.901515,33.2088536 C141.689388,33.7362872 140.388896,34 139,34 C137.611104,34 136.310612,33.7362872 135.098485,33.2088536 C133.886358,32.68142 132.825762,31.9546017 131.916667,31.0283768 C131.007571,30.102152 130.294195,29.0215726 129.776515,27.7866061 C129.258836,26.5516397 129,25.2266435 129,23.8115778 L129,1.93181818 C129,0.864904461 129.864904,1.95988871e-16 130.931818,0 L130.931818,0 C131.998732,-1.95988871e-16 132.863636,0.864904461 132.863636,1.93181818 L132.863636,15.7457435 C133.722227,15.0768033 134.669187,14.5558097 135.704545,14.1827469 C136.739904,13.8096841 137.838378,13.6231555 139,13.6231555 Z M139,30.0249716 C139.833337,30.0249716 140.622471,29.8641711 141.367424,29.5425653 C142.112377,29.2209594 142.762623,28.77715 143.318182,28.2111237 C143.87374,27.6450974 144.309342,26.9825993 144.625,26.2236095 C144.940658,25.4646197 145.098485,24.6606172 145.098485,23.8115778 C145.098485,22.9625383 144.940658,22.1585358 144.625,21.399546 C144.309342,20.6405562 143.87374,19.9780581 143.318182,19.4120318 C142.762623,18.8460055 142.112377,18.4021961 141.367424,18.0805902 C140.622471,17.7589844 139.833337,17.5981839 139,17.5981839 C138.166663,17.5981839 137.377529,17.7589844 136.632576,18.0805902 C135.887623,18.4021961 135.237377,18.8460055 134.681818,19.4120318 C134.12626,19.9780581 133.684345,20.6341242 133.356061,21.3802497 C133.027776,22.1263753 132.863636,22.9239458 132.863636,23.7729852 L132.863636,23.8115778 C132.863636,24.6606172 133.027776,25.4646197 133.356061,26.2236095 C133.684345,26.9825993 134.12626,27.6450974 134.681818,28.2111237 C135.237377,28.77715 135.887623,29.2209594 136.632576,29.5425653 C137.377529,29.8641711 138.166663,30.0249716 139,30.0249716 Z" id="b-copy-4" fill="#F9BE00" transform="translate(139.000000, 17.000000) scale(-1, 1) translate(-139.000000, -17.000000) "></path>
            <path d="M103.712114,24.2878788 L89.0151515,24.2878788 C89.1666674,24.9697004 89.4255032,25.6073203 89.7916667,26.2007576 C90.1578301,26.7941949 90.606058,27.3055534 91.1363636,27.7348485 C91.6666693,28.1641436 92.2600977,28.4987362 92.9166667,28.7386364 C93.5732356,28.9785366 94.2676731,29.0984848 95,29.0984848 C95.8838428,29.0984848 96.7108547,28.9217189 97.4810606,28.5681818 C98.2512665,28.2146447 98.9267648,27.7222254 99.5075758,27.0909091 C99.5075758,27.0909091 99.5075758,27.0909091 99.5075758,27.0909091 L99.5075758,27.0909091 C100.267024,26.2654222 101.551867,26.2118871 102.377354,26.971335 C102.753399,27.317296 102.98522,27.7922903 103.026586,28.3015912 C103.057467,28.6822775 102.995588,28.9731602 102.840909,29.1742424 C101.941545,30.3434152 100.795461,31.2638854 99.4318182,31.9583333 C98.068175,32.6527812 96.590917,33 95,33 C93.6111042,33 92.3106121,32.7411642 91.0984848,32.2234848 C89.8863576,31.7058055 88.8257621,30.9924288 87.9166667,30.0833333 C87.0075712,29.1742379 86.2941945,28.1136424 85.7765152,26.9015152 C85.2588358,25.6893879 85,24.3888958 85,23 C85,21.6111042 85.2588358,20.3106121 85.7765152,19.0984848 C86.2941945,17.8863576 87.0075712,16.8257621 87.9166667,15.9166667 C88.8257621,15.0075712 89.8863576,14.2941945 91.0984848,13.7765152 C92.3106121,13.2588358 93.6111042,13 95,13 C96.590917,13 98.068175,13.3472187 99.4318182,14.0416667 C100.795461,14.7361146 101.931814,15.6767617 102.840909,16.8636364 C103.674247,17.8737424 104.280301,19.0605992 104.659091,20.4242424 C104.886365,21.2323273 105,22.0909045 105,23 C105,23 105,23 105,23 L105,23 C105,23.7112796 104.423394,24.2878856 103.712114,24.2878856 Z M95,16.9015152 C93.7626201,16.9015152 92.6578331,17.2234816 91.6856061,17.8674242 C90.713379,18.5113669 89.97475,19.3636311 89.469697,20.4242424 L100.530303,20.4242424 C100.40404,20.2222212 100.284091,20.020203 100.170455,19.8181818 C100.056818,19.6161606 99.9368693,19.4267686 99.8106061,19.25 C99.2297951,18.5176731 98.5227314,17.9431839 97.6893939,17.5265152 C96.8560564,17.1098464 95.9596008,16.9015152 95,16.9015152 Z" id="e-copy-5" fill="#3F51B5"></path>
            <path d="M125.712114,24.2878788 L111.015152,24.2878788 C111.166667,24.9697004 111.425503,25.6073203 111.791667,26.2007576 C112.15783,26.7941949 112.606058,27.3055534 113.136364,27.7348485 C113.666669,28.1641436 114.260098,28.4987362 114.916667,28.7386364 C115.573236,28.9785366 116.267673,29.0984848 117,29.0984848 C117.883843,29.0984848 118.710855,28.9217189 119.481061,28.5681818 C120.251266,28.2146447 120.926765,27.7222254 121.507576,27.0909091 C121.507576,27.0909091 121.507576,27.0909091 121.507576,27.0909091 L121.507576,27.0909091 C122.267024,26.2654222 123.551867,26.2118871 124.377354,26.971335 C124.753399,27.317296 124.98522,27.7922903 125.026586,28.3015912 C125.057467,28.6822775 124.995588,28.9731602 124.840909,29.1742424 C123.941545,30.3434152 122.795461,31.2638854 121.431818,31.9583333 C120.068175,32.6527812 118.590917,33 117,33 C115.611104,33 114.310612,32.7411642 113.098485,32.2234848 C111.886358,31.7058055 110.825762,30.9924288 109.916667,30.0833333 C109.007571,29.1742379 108.294195,28.1136424 107.776515,26.9015152 C107.258836,25.6893879 107,24.3888958 107,23 C107,21.6111042 107.258836,20.3106121 107.776515,19.0984848 C108.294195,17.8863576 109.007571,16.8257621 109.916667,15.9166667 C110.825762,15.0075712 111.886358,14.2941945 113.098485,13.7765152 C114.310612,13.2588358 115.611104,13 117,13 C118.590917,13 120.068175,13.3472187 121.431818,14.0416667 C122.795461,14.7361146 123.931814,15.6767617 124.840909,16.8636364 C125.674247,17.8737424 126.280301,19.0605992 126.659091,20.4242424 C126.886365,21.2323273 127,22.0909045 127,23 C127,23 127,23 127,23 L127,23 C127,23.7112796 126.423394,24.2878856 125.712114,24.2878856 Z M117,16.9015152 C115.76262,16.9015152 114.657833,17.2234816 113.685606,17.8674242 C112.713379,18.5113669 111.97475,19.3636311 111.469697,20.4242424 L122.530303,20.4242424 C122.40404,20.2222212 122.284091,20.020203 122.170455,19.8181818 C122.056818,19.6161606 121.936869,19.4267686 121.810606,19.25 C121.229795,18.5176731 120.522731,17.9431839 119.689394,17.5265152 C118.856056,17.1098464 117.959601,16.9015152 117,16.9015152 Z" id="e-copy-6" fill="#F9BE00"></path>
            <path d="M69.9143428,37.5274739 C69.8495963,37.742083 69.7157649,38.0825099 69.5150754,38.4796634 C69.1949861,39.1131024 68.7785154,39.7419925 68.2516825,40.3289613 C66.7542926,41.9972723 64.6746045,43 62.0002759,43 C59.3259658,43 57.2462918,41.9972905 55.748884,40.329016 C54.8398049,39.3162035 54.3124851,38.272772 54.0850923,37.5240608 C53.7700895,36.4692838 54.3598715,35.3752897 55.3556971,35.0768862 C56.3212591,34.7864492 57.3577255,35.3419053 57.6648693,36.3556634 C57.6875109,36.4289137 57.7453728,36.5748525 57.8455461,36.7696049 C58.0143607,37.0978065 58.2367677,37.425122 58.5172232,37.7275952 C59.3169011,38.590053 60.433389,39.1055433 62.0002759,39.1055433 C63.5705194,39.1055433 64.6933254,38.576694 65.5010464,37.6931235 C65.7820351,37.3857484 66.0042984,37.0551579 66.1719547,36.727083 C66.2661637,36.542732 66.3226078,36.400049 66.3312084,36.3708248 C66.6371934,35.3462437 67.6744886,34.7856183 68.644043,35.0766424 C69.640804,35.375574 70.2306003,36.4695128 69.9143428,37.5274739 Z" id="Shape" fill="#3F51B5" fill-rule="nonzero"></path>
        </g>
    </g>
</svg>