<?xml version="1.0" encoding="UTF-8" standalone="no"?>
<svg width="41px" height="44px" viewBox="0 0 41 44" version="1.1" xmlns="http://www.w3.org/2000/svg" xmlns:xlink="http://www.w3.org/1999/xlink">
    <!-- Generator: Sketch 50.2 (55047) - http://www.bohemiancoding.com/sketch -->
    <title>Group 3</title>
    <desc>Created with Sketch.</desc>
    <defs></defs>
    <g id="Page-1" stroke="none" stroke-width="1" fill="none" fill-rule="evenodd">
        <g id="8a.-Assessment-Report-" transform="translate(-191.000000, -351.000000)">
            <g id="Group-8" transform="translate(191.000000, 318.000000)">
                <g id="Group-3" transform="translate(0.000000, 33.000000)">
                    <g id="Group-2">
                        <g id="file-(2)-copy" fill-rule="nonzero">
                            <g id="Group" transform="translate(0.779727, 0.779727)">
                                <path d="M31.9585185,11.0162183 L17.6010136,11.0162183 L14.8765692,17.0339961 L3.24358674,17.0339961 L3.24358674,35.0877193 L25.4238596,35.0877193 C25.2127875,34.5302144 25.097076,33.9259259 25.097076,33.2945029 C25.097076,30.4958285 27.3666277,28.2262768 30.1653021,28.2262768 C30.7967251,28.2262768 31.4010136,28.3421442 31.9585185,28.5530604 L31.9585185,11.0162183 Z" id="Shape" fill="#D1FFAF"></path>
                                <path d="M9.42167641,0 L28.134347,0 L28.134347,11.0162183 L17.6010136,11.0162183 L14.8765692,17.0339961 L3.24358674,17.0339961 L3.24358674,30.2712671 L0.0105263158,30.2712671 L0.0105263158,9.32124756 L9.42167641,0 Z M0.108382066,9.22440546 L9.27680312,9.22440546 L9.27680312,0.143469786 L0.108382066,9.22440546 Z" id="Shape" fill="#F0F0FB"></path>
                                <polygon id="Shape" fill="#BFBFCF" points="0.108382066 9.22440546 9.27680312 0.143469786 9.27680312 9.22440546"></polygon>
                                <path d="M30.1652242,38.362729 C32.9567251,38.362729 35.2334503,36.085848 35.2334503,33.2945029 C35.2334503,30.5030019 32.9567251,28.2262768 30.1652242,28.2262768 C27.3737232,28.2262768 25.0969981,30.5030019 25.0969981,33.2945029 C25.0969981,36.085848 27.3738012,38.362729 30.1652242,38.362729 Z" id="Shape" fill="#00D8CE"></path>
                            </g>
                            <path d="M29.18846,17.66846 L29.2283821,17.66846 C29.6589474,17.66846 30.0081092,17.3193762 30.0081092,16.8887329 C30.0081092,16.4581676 29.6589474,16.1090058 29.2283821,16.1090058 L29.18846,16.1090058 C28.7578947,16.1090058 28.4087329,16.4581676 28.4087329,16.8887329 C28.4087329,17.3192982 28.7578947,17.66846 29.18846,17.66846 Z" id="Shape" fill="#000000"></path>
                            <path d="M27.5323197,16.8887329 C27.5323197,16.4581676 27.1832359,16.1090058 26.7525926,16.1090058 L21.7607797,16.1090058 C21.3301365,16.1090058 20.9810526,16.4581676 20.9810526,16.8887329 C20.9810526,17.3193762 21.3301365,17.66846 21.7607797,17.66846 L26.7525926,17.66846 C27.1831579,17.66846 27.5323197,17.3192982 27.5323197,16.8887329 Z" id="Shape" fill="#000000"></path>
                            <path d="M18.2335283,5.58557505 L23.2254191,5.58557505 C23.6559844,5.58557505 24.0051462,5.23641326 24.0051462,4.80584795 C24.0051462,4.37528265 23.6559844,4.02612086 23.2254191,4.02612086 L18.2335283,4.02612086 C17.802885,4.02612086 17.4538012,4.37528265 17.4538012,4.80584795 C17.4538012,5.23641326 17.802885,5.58557505 18.2335283,5.58557505 Z" id="Shape" fill="#000000"></path>
                            <path d="M25.6612865,5.58557505 L25.7010526,5.58557505 C26.1316179,5.58557505 26.4807797,5.23641326 26.4807797,4.80584795 C26.4807797,4.37528265 26.1316179,4.02612086 25.7010526,4.02612086 L25.6612865,4.02612086 C25.2307212,4.02612086 24.8815595,4.37528265 24.8815595,4.80584795 C24.8815595,5.23641326 25.2306433,5.58557505 25.6612865,5.58557505 Z" id="Shape" fill="#000000"></path>
                            <path d="M14.4559844,8.92038986 L25.7779337,8.92038986 C26.208577,8.92038986 26.5576608,8.57122807 26.5576608,8.14066277 C26.5576608,7.71009747 26.208577,7.36093567 25.7779337,7.36093567 L14.4559844,7.36093567 C14.0253411,7.36093567 13.6762573,7.71009747 13.6762573,8.14066277 C13.6762573,8.57130604 14.0253411,8.92038986 14.4559844,8.92038986 Z" id="Shape" fill="#000000"></path>
                            <path d="M33.5178947,28.8242495 L33.5178947,11.7959454 C33.5178947,11.3653021 33.1687329,11.0162183 32.7381676,11.0162183 L29.6937232,11.0162183 L29.6937232,0.779727096 C29.6937232,0.349161793 29.3446394,0 28.9139961,0 L10.2013255,0 C9.99578947,0 9.79859649,0.0810916179 9.65263158,0.225808967 L0.241481481,9.54697856 C0.0936452242,9.69341131 0.0104483431,9.8928655 0.0104483431,10.1008967 L0.0104483431,31.0509162 C0.0104483431,31.4814815 0.359532164,31.8306433 0.790175439,31.8306433 L3.24358674,31.8306433 L3.24358674,35.8674464 C3.24358674,36.2980117 3.59267057,36.6471735 4.02331384,36.6471735 L25.6949708,36.6471735 C26.648577,38.5851072 28.6432749,39.9221832 30.9449513,39.9221832 C34.1695127,39.9221832 36.7929045,37.2988694 36.7929045,34.07423 C36.7929045,31.7724756 35.4558285,29.7778558 33.5178947,28.8242495 Z M9.27680312,2.79290448 L9.27680312,9.22432749 L2.78346979,9.22432749 L9.27680312,2.79290448 Z M1.56998051,30.2712671 L1.56998051,10.7838596 L10.0566082,10.7838596 C10.4872515,10.7838596 10.8363353,10.4346979 10.8363353,10.0041326 L10.8363353,1.55945419 L28.134347,1.55945419 L28.134347,11.0162183 L18.3807407,11.0162183 C18.0745419,11.0162183 17.7967251,11.1953996 17.6704094,11.474386 L15.1533723,17.0339961 L4.02331384,17.0339961 C3.59267057,17.0339961 3.24358674,17.3830799 3.24358674,17.8137232 L3.24358674,30.2712671 L1.56998051,30.2712671 Z M4.80304094,35.0877193 L4.80304094,18.5934503 L15.6562183,18.5934503 C15.9624172,18.5934503 16.2402339,18.414269 16.3665497,18.1352827 L18.8835867,12.5756725 L31.9584405,12.5756725 L31.9584405,28.3159454 C31.6289279,28.2581676 31.2907602,28.2262768 30.9449513,28.2262768 C27.7203899,28.2262768 25.0969981,30.8496686 25.0969981,34.07423 C25.0969981,34.420039 25.1288889,34.7582846 25.1866667,35.0877193 L4.80304094,35.0877193 Z M30.9449513,38.362729 C28.5802729,38.362729 26.6564522,36.4389084 26.6564522,34.07423 C26.6564522,31.7095517 28.5802729,29.785731 30.9449513,29.785731 C33.3096296,29.785731 35.2334503,31.7095517 35.2334503,34.07423 C35.2334503,36.4389084 33.3097076,38.362729 30.9449513,38.362729 Z" id="Shape" fill="#000000"></path>
                        </g>
                        <circle id="Oval-3" stroke="#000000" stroke-width="2" fill="#60B91E" cx="30.5" cy="33.5" r="9.5"></circle>
                        <path d="M35.4281455,30.360509 C34.7832552,29.815996 33.8193573,29.8975813 33.2751499,30.5424716 L29.9072365,34.5322053 L28.4579521,33.4201095 C27.7886167,32.9063056 26.8293023,33.032503 26.315804,33.7021439 C25.8021529,34.3716321 25.9283503,35.330641 26.5978385,35.8444448 L29.2041365,37.8443535 C29.4811292,38.0568724 29.8082342,38.1599998 30.133353,38.1599998 C30.56878,38.1599998 31.0003875,37.974676 31.3016724,37.6176258 L35.6102609,32.5135046 C36.1543155,31.868767 36.072883,30.9048691 35.4281455,30.360509 Z" id="Shape-Copy" fill="#000000" fill-rule="nonzero"></path>
                    </g>
                </g>
            </g>
        </g>
    </g>
</svg>