<?xml version="1.0" encoding="UTF-8" standalone="no"?>
<svg width="41px" height="43px" viewBox="0 0 41 43" version="1.1" xmlns="http://www.w3.org/2000/svg" xmlns:xlink="http://www.w3.org/1999/xlink">
    <!-- Generator: Sketch 50.2 (55047) - http://www.bohemiancoding.com/sketch -->
    <title>Group 5</title>
    <desc>Created with Sketch.</desc>
    <defs></defs>
    <g id="Page-1" stroke="none" stroke-width="1" fill="none" fill-rule="evenodd">
        <g id="8a.-Assessment-Report-" transform="translate(-834.000000, -350.000000)">
            <g id="Group-8" transform="translate(191.000000, 318.000000)">
                <g id="Group-5" transform="translate(643.000000, 32.000000)">
                    <g id="Group-2-Copy-2" fill-rule="nonzero">
                        <g id="file-(2)-copy">
                            <g id="Group" transform="translate(0.779727, 0.760234)">
                                <path d="M31.9585185,10.7408129 L17.6010136,10.7408129 L14.8765692,16.6081462 L3.24358674,16.6081462 L3.24358674,34.2105263 L25.4238596,34.2105263 C25.2127875,33.6669591 25.097076,33.0777778 25.097076,32.4621404 C25.097076,29.7334327 27.3666277,27.5206199 30.1653021,27.5206199 C30.7967251,27.5206199 31.4010136,27.6335906 31.9585185,27.8392339 L31.9585185,10.7408129 Z" id="Shape" fill="#BEFFFC"></path>
                                <path d="M9.42167641,0 L28.134347,0 L28.134347,10.7408129 L17.6010136,10.7408129 L14.8765692,16.6081462 L3.24358674,16.6081462 L3.24358674,29.5144854 L0.0105263158,29.5144854 L0.0105263158,9.08821637 L9.42167641,0 Z M0.108382066,8.99379532 L9.27680312,8.99379532 L9.27680312,0.139883041 L0.108382066,8.99379532 Z" id="Shape" fill="#F0F0FB"></path>
                                <polygon id="Shape" fill="#BFBFCF" points="0.108382066 8.99379532 9.27680312 0.139883041 9.27680312 8.99379532"></polygon>
                                <path d="M30.1652242,37.4036608 C32.9567251,37.4036608 35.2334503,35.1837018 35.2334503,32.4621404 C35.2334503,29.7404269 32.9567251,27.5206199 30.1652242,27.5206199 C27.3737232,27.5206199 25.0969981,29.7404269 25.0969981,32.4621404 C25.0969981,35.1837018 27.3738012,37.4036608 30.1652242,37.4036608 Z" id="Shape" fill="#00D8CE"></path>
                            </g>
                            <path d="M29.18846,17.2267485 L29.2283821,17.2267485 C29.6589474,17.2267485 30.0081092,16.8863918 30.0081092,16.4665146 C30.0081092,16.0467135 29.6589474,15.7062807 29.2283821,15.7062807 L29.18846,15.7062807 C28.7578947,15.7062807 28.4087329,16.0467135 28.4087329,16.4665146 C28.4087329,16.8863158 28.7578947,17.2267485 29.18846,17.2267485 Z" id="Shape" fill="#000000"></path>
                            <path d="M27.5323197,16.4665146 C27.5323197,16.0467135 27.1832359,15.7062807 26.7525926,15.7062807 L21.7607797,15.7062807 C21.3301365,15.7062807 20.9810526,16.0467135 20.9810526,16.4665146 C20.9810526,16.8863918 21.3301365,17.2267485 21.7607797,17.2267485 L26.7525926,17.2267485 C27.1831579,17.2267485 27.5323197,16.8863158 27.5323197,16.4665146 Z" id="Shape" fill="#000000"></path>
                            <path d="M18.2335283,5.44593567 L23.2254191,5.44593567 C23.6559844,5.44593567 24.0051462,5.10550292 24.0051462,4.68570175 C24.0051462,4.26590058 23.6559844,3.92546784 23.2254191,3.92546784 L18.2335283,3.92546784 C17.802885,3.92546784 17.4538012,4.26590058 17.4538012,4.68570175 C17.4538012,5.10550292 17.802885,5.44593567 18.2335283,5.44593567 Z" id="Shape" fill="#000000"></path>
                            <path d="M25.6612865,5.44593567 L25.7010526,5.44593567 C26.1316179,5.44593567 26.4807797,5.10550292 26.4807797,4.68570175 C26.4807797,4.26590058 26.1316179,3.92546784 25.7010526,3.92546784 L25.6612865,3.92546784 C25.2307212,3.92546784 24.8815595,4.26590058 24.8815595,4.68570175 C24.8815595,5.10550292 25.2306433,5.44593567 25.6612865,5.44593567 Z" id="Shape" fill="#000000"></path>
                            <path d="M14.4559844,8.69738012 L25.7779337,8.69738012 C26.208577,8.69738012 26.5576608,8.35694737 26.5576608,7.9371462 C26.5576608,7.51734503 26.208577,7.17691228 25.7779337,7.17691228 L14.4559844,7.17691228 C14.0253411,7.17691228 13.6762573,7.51734503 13.6762573,7.9371462 C13.6762573,8.35702339 14.0253411,8.69738012 14.4559844,8.69738012 Z" id="Shape" fill="#000000"></path>
                            <path d="M33.5178947,28.1036433 L33.5178947,11.5010468 C33.5178947,11.0811696 33.1687329,10.7408129 32.7381676,10.7408129 L29.6937232,10.7408129 L29.6937232,0.760233918 C29.6937232,0.340432749 29.3446394,0 28.9139961,0 L10.2013255,0 C9.99578947,0 9.79859649,0.0790643275 9.65263158,0.220163743 L0.241481481,9.30830409 C0.0936452242,9.45107602 0.0104483431,9.64554386 0.0104483431,9.84837427 L0.0104483431,30.2746433 C0.0104483431,30.6944444 0.359532164,31.0348772 0.790175439,31.0348772 L3.24358674,31.0348772 L3.24358674,34.9707602 C3.24358674,35.3905614 3.59267057,35.7309942 4.02331384,35.7309942 L25.6949708,35.7309942 C26.648577,37.6204795 28.6432749,38.9241287 30.9449513,38.9241287 C34.1695127,38.9241287 36.7929045,36.3663977 36.7929045,33.2223743 C36.7929045,30.9781637 35.4558285,29.0334094 33.5178947,28.1036433 Z M9.27680312,2.72308187 L9.27680312,8.9937193 L2.78346979,8.9937193 L9.27680312,2.72308187 Z M1.56998051,29.5144854 L1.56998051,10.5142632 L10.0566082,10.5142632 C10.4872515,10.5142632 10.8363353,10.1738304 10.8363353,9.75402924 L10.8363353,1.52046784 L28.134347,1.52046784 L28.134347,10.7408129 L18.3807407,10.7408129 C18.0745419,10.7408129 17.7967251,10.9155146 17.6704094,11.1875263 L15.1533723,16.6081462 L4.02331384,16.6081462 C3.59267057,16.6081462 3.24358674,16.9485029 3.24358674,17.3683801 L3.24358674,29.5144854 L1.56998051,29.5144854 Z M4.80304094,34.2105263 L4.80304094,18.128614 L15.6562183,18.128614 C15.9624172,18.128614 16.2402339,17.9539123 16.3665497,17.6819006 L18.8835867,12.2612807 L31.9584405,12.2612807 L31.9584405,27.6080468 C31.6289279,27.5517135 31.2907602,27.5206199 30.9449513,27.5206199 C27.7203899,27.5206199 25.0969981,30.0784269 25.0969981,33.2223743 C25.0969981,33.559538 25.1288889,33.8893275 25.1866667,34.2105263 L4.80304094,34.2105263 Z M30.9449513,37.4036608 C28.5802729,37.4036608 26.6564522,35.5279357 26.6564522,33.2223743 C26.6564522,30.9168129 28.5802729,29.0410877 30.9449513,29.0410877 C33.3096296,29.0410877 35.2334503,30.9168129 35.2334503,33.2223743 C35.2334503,35.5279357 33.3097076,37.4036608 30.9449513,37.4036608 Z" id="Shape" fill="#000000"></path>
                        </g>
                        <path d="M27.2064912,30.793674 L28.9961209,32.5385629 C29.2714425,32.8070015 29.2714425,33.2096974 28.9961209,33.478136 L27.2064912,35.2229488 C26.9311696,35.4913874 26.9311696,35.8940833 27.2064912,36.1625219 L27.6195127,36.5652178 C27.8948343,36.8336564 28.3078558,36.8336564 28.5831774,36.5652178 L30.372807,34.8203289 C30.6481287,34.5518904 31.0611501,34.5518904 31.3364717,34.8203289 L33.1261014,36.5652178 C33.401423,36.8336564 33.8144444,36.8336564 34.0897661,36.5652178 L34.5027875,36.1625219 C34.7781092,35.8940833 34.7781092,35.4913874 34.5027875,35.2229488 L32.7131579,33.4780599 C32.4378363,33.2096213 32.4378363,32.8069254 32.7131579,32.5384868 L34.5027875,30.793598 C34.7781092,30.5251594 34.7781092,30.1224635 34.5027875,29.8540249 L34.0897661,29.4513289 C33.8144444,29.1828904 33.401423,29.1828904 33.1261014,29.4513289 L31.3364717,31.1962178 C31.0611501,31.4646564 30.6481287,31.4646564 30.372807,31.1962178 L28.5831774,29.4513289 C28.3078558,29.1828904 27.8948343,29.1828904 27.6195127,29.4513289 L27.2064912,29.8540249 C26.9311696,30.1225395 26.9311696,30.5252354 27.2064912,30.793674 Z" id="Shape-Copy-2" fill="#000000"></path>
                    </g>
                    <g id="Group-8-Copy" transform="translate(20.000000, 22.000000)">
                        <g id="Group-6" fill="#00D8CE">
                            <g id="Group-7">
                                <circle id="Oval" cx="10.5" cy="10.5" r="10.5"></circle>
                            </g>
                        </g>
                        <g id="next" fill="#000000" fill-rule="nonzero">
                            <path d="M11.9345471,10.068633 L7.81290799,7.10184435 C7.40305323,6.86464887 7,7.05622681 7,7.52645645 L7,13.4733814 C7,13.9443176 7.40305323,14.1352675 7.81290799,13.8979935 L11.9255624,10.9747025 C12.4471805,10.6939308 12.2565699,10.240582 11.9345471,10.068633 Z M10.5,0 C4.70068938,0 0,4.7009107 0,10.4996696 C0,16.2991627 4.70068938,21 10.5,21 C16.2993106,21 21,16.2991627 21,10.4996696 C21,4.70157143 16.2992372,0 10.5,0 Z M10.5,19.25 C5.66731708,19.25 1.75,15.3326998 1.75,10.5000376 C1.75,5.66737552 5.66731708,1.75 10.5,1.75 C15.3326829,1.75 19.25,5.66730022 19.25,10.4999624 C19.25,15.3326245 15.3326829,19.25 10.5,19.25 Z M13.125,7 C12.6419849,7 12.25,7.47038885 12.25,8.05001566 L12.25,12.9499843 C12.25,13.5296112 12.6419849,14 13.125,14 C13.6080151,14 14,13.5296112 14,12.9499843 L14,8.05001566 C14,7.47038885 13.6080151,7 13.125,7 Z" id="Shape"></path>
                        </g>
                    </g>
                </g>
            </g>
        </g>
    </g>
</svg>